<?xml version="1.0" encoding="utf-8" standalone="no"?>
<!DOCTYPE svg PUBLIC "-//W3C//DTD SVG 1.1//EN"
  "http://www.w3.org/Graphics/SVG/1.1/DTD/svg11.dtd">
<!-- Created with matplotlib (https://matplotlib.org/) -->
<svg height="288pt" version="1.1" viewBox="0 0 432 288" width="432pt" xmlns="http://www.w3.org/2000/svg" xmlns:xlink="http://www.w3.org/1999/xlink">
 <metadata>
  <rdf:RDF xmlns:cc="http://creativecommons.org/ns#" xmlns:dc="http://purl.org/dc/elements/1.1/" xmlns:rdf="http://www.w3.org/1999/02/22-rdf-syntax-ns#">
   <cc:Work>
    <dc:type rdf:resource="http://purl.org/dc/dcmitype/StillImage"/>
    <dc:date>2021-04-06T00:27:22.229371</dc:date>
    <dc:format>image/svg+xml</dc:format>
    <dc:creator>
     <cc:Agent>
      <dc:title>Matplotlib v3.3.2, https://matplotlib.org/</dc:title>
     </cc:Agent>
    </dc:creator>
   </cc:Work>
  </rdf:RDF>
 </metadata>
 <defs>
  <style type="text/css">*{stroke-linecap:butt;stroke-linejoin:round;}</style>
 </defs>
 <g id="figure_1">
  <g id="patch_1">
   <path d="M 0 288 
L 432 288 
L 432 0 
L 0 0 
z
" style="fill:none;"/>
  </g>
  <g id="axes_1">
   <g id="patch_2">
    <path d="M 54 252 
L 388.8 252 
L 388.8 34.56 
L 54 34.56 
z
" style="fill:#ffffff;"/>
   </g>
   <g id="matplotlib.axis_1">
    <g id="xtick_1">
     <g id="line2d_1">
      <path clip-path="url(#p12400d6977)" d="M 54 252 
L 54 34.56 
" style="fill:none;stroke:#b0b0b0;stroke-linecap:square;stroke-width:0.8;"/>
     </g>
     <g id="line2d_2">
      <defs>
       <path d="M 0 0 
L 0 3.5 
" id="m6d9068cd4d" style="stroke:#000000;stroke-width:0.8;"/>
      </defs>
      <g>
       <use style="stroke:#000000;stroke-width:0.8;" x="54" xlink:href="#m6d9068cd4d" y="252"/>
      </g>
     </g>
     <g id="text_1">
      <!-- 0 -->
      <g transform="translate(50.81875 266.598437)scale(0.1 -0.1)">
       <defs>
        <path d="M 31.78125 66.40625 
Q 24.171875 66.40625 20.328125 58.90625 
Q 16.5 51.421875 16.5 36.375 
Q 16.5 21.390625 20.328125 13.890625 
Q 24.171875 6.390625 31.78125 6.390625 
Q 39.453125 6.390625 43.28125 13.890625 
Q 47.125 21.390625 47.125 36.375 
Q 47.125 51.421875 43.28125 58.90625 
Q 39.453125 66.40625 31.78125 66.40625 
z
M 31.78125 74.21875 
Q 44.046875 74.21875 50.515625 64.515625 
Q 56.984375 54.828125 56.984375 36.375 
Q 56.984375 17.96875 50.515625 8.265625 
Q 44.046875 -1.421875 31.78125 -1.421875 
Q 19.53125 -1.421875 13.0625 8.265625 
Q 6.59375 17.96875 6.59375 36.375 
Q 6.59375 54.828125 13.0625 64.515625 
Q 19.53125 74.21875 31.78125 74.21875 
z
" id="DejaVuSans-48"/>
       </defs>
       <use xlink:href="#DejaVuSans-48"/>
      </g>
     </g>
    </g>
    <g id="xtick_2">
     <g id="line2d_3">
      <path clip-path="url(#p12400d6977)" d="M 109.8 252 
L 109.8 34.56 
" style="fill:none;stroke:#b0b0b0;stroke-linecap:square;stroke-width:0.8;"/>
     </g>
     <g id="line2d_4">
      <g>
       <use style="stroke:#000000;stroke-width:0.8;" x="109.8" xlink:href="#m6d9068cd4d" y="252"/>
      </g>
     </g>
     <g id="text_2">
      <!-- 50 -->
      <g transform="translate(103.4375 266.598437)scale(0.1 -0.1)">
       <defs>
        <path d="M 10.796875 72.90625 
L 49.515625 72.90625 
L 49.515625 64.59375 
L 19.828125 64.59375 
L 19.828125 46.734375 
Q 21.96875 47.46875 24.109375 47.828125 
Q 26.265625 48.1875 28.421875 48.1875 
Q 40.625 48.1875 47.75 41.5 
Q 54.890625 34.8125 54.890625 23.390625 
Q 54.890625 11.625 47.5625 5.09375 
Q 40.234375 -1.421875 26.90625 -1.421875 
Q 22.3125 -1.421875 17.546875 -0.640625 
Q 12.796875 0.140625 7.71875 1.703125 
L 7.71875 11.625 
Q 12.109375 9.234375 16.796875 8.0625 
Q 21.484375 6.890625 26.703125 6.890625 
Q 35.15625 6.890625 40.078125 11.328125 
Q 45.015625 15.765625 45.015625 23.390625 
Q 45.015625 31 40.078125 35.4375 
Q 35.15625 39.890625 26.703125 39.890625 
Q 22.75 39.890625 18.8125 39.015625 
Q 14.890625 38.140625 10.796875 36.28125 
z
" id="DejaVuSans-53"/>
       </defs>
       <use xlink:href="#DejaVuSans-53"/>
       <use x="63.623047" xlink:href="#DejaVuSans-48"/>
      </g>
     </g>
    </g>
    <g id="xtick_3">
     <g id="line2d_5">
      <path clip-path="url(#p12400d6977)" d="M 165.6 252 
L 165.6 34.56 
" style="fill:none;stroke:#b0b0b0;stroke-linecap:square;stroke-width:0.8;"/>
     </g>
     <g id="line2d_6">
      <g>
       <use style="stroke:#000000;stroke-width:0.8;" x="165.6" xlink:href="#m6d9068cd4d" y="252"/>
      </g>
     </g>
     <g id="text_3">
      <!-- 100 -->
      <g transform="translate(156.05625 266.598437)scale(0.1 -0.1)">
       <defs>
        <path d="M 12.40625 8.296875 
L 28.515625 8.296875 
L 28.515625 63.921875 
L 10.984375 60.40625 
L 10.984375 69.390625 
L 28.421875 72.90625 
L 38.28125 72.90625 
L 38.28125 8.296875 
L 54.390625 8.296875 
L 54.390625 0 
L 12.40625 0 
z
" id="DejaVuSans-49"/>
       </defs>
       <use xlink:href="#DejaVuSans-49"/>
       <use x="63.623047" xlink:href="#DejaVuSans-48"/>
       <use x="127.246094" xlink:href="#DejaVuSans-48"/>
      </g>
     </g>
    </g>
    <g id="xtick_4">
     <g id="line2d_7">
      <path clip-path="url(#p12400d6977)" d="M 221.4 252 
L 221.4 34.56 
" style="fill:none;stroke:#b0b0b0;stroke-linecap:square;stroke-width:0.8;"/>
     </g>
     <g id="line2d_8">
      <g>
       <use style="stroke:#000000;stroke-width:0.8;" x="221.4" xlink:href="#m6d9068cd4d" y="252"/>
      </g>
     </g>
     <g id="text_4">
      <!-- 150 -->
      <g transform="translate(211.85625 266.598437)scale(0.1 -0.1)">
       <use xlink:href="#DejaVuSans-49"/>
       <use x="63.623047" xlink:href="#DejaVuSans-53"/>
       <use x="127.246094" xlink:href="#DejaVuSans-48"/>
      </g>
     </g>
    </g>
    <g id="xtick_5">
     <g id="line2d_9">
      <path clip-path="url(#p12400d6977)" d="M 277.2 252 
L 277.2 34.56 
" style="fill:none;stroke:#b0b0b0;stroke-linecap:square;stroke-width:0.8;"/>
     </g>
     <g id="line2d_10">
      <g>
       <use style="stroke:#000000;stroke-width:0.8;" x="277.2" xlink:href="#m6d9068cd4d" y="252"/>
      </g>
     </g>
     <g id="text_5">
      <!-- 200 -->
      <g transform="translate(267.65625 266.598437)scale(0.1 -0.1)">
       <defs>
        <path d="M 19.1875 8.296875 
L 53.609375 8.296875 
L 53.609375 0 
L 7.328125 0 
L 7.328125 8.296875 
Q 12.9375 14.109375 22.625 23.890625 
Q 32.328125 33.6875 34.8125 36.53125 
Q 39.546875 41.84375 41.421875 45.53125 
Q 43.3125 49.21875 43.3125 52.78125 
Q 43.3125 58.59375 39.234375 62.25 
Q 35.15625 65.921875 28.609375 65.921875 
Q 23.96875 65.921875 18.8125 64.3125 
Q 13.671875 62.703125 7.8125 59.421875 
L 7.8125 69.390625 
Q 13.765625 71.78125 18.9375 73 
Q 24.125 74.21875 28.421875 74.21875 
Q 39.75 74.21875 46.484375 68.546875 
Q 53.21875 62.890625 53.21875 53.421875 
Q 53.21875 48.921875 51.53125 44.890625 
Q 49.859375 40.875 45.40625 35.40625 
Q 44.1875 33.984375 37.640625 27.21875 
Q 31.109375 20.453125 19.1875 8.296875 
z
" id="DejaVuSans-50"/>
       </defs>
       <use xlink:href="#DejaVuSans-50"/>
       <use x="63.623047" xlink:href="#DejaVuSans-48"/>
       <use x="127.246094" xlink:href="#DejaVuSans-48"/>
      </g>
     </g>
    </g>
    <g id="xtick_6">
     <g id="line2d_11">
      <path clip-path="url(#p12400d6977)" d="M 333 252 
L 333 34.56 
" style="fill:none;stroke:#b0b0b0;stroke-linecap:square;stroke-width:0.8;"/>
     </g>
     <g id="line2d_12">
      <g>
       <use style="stroke:#000000;stroke-width:0.8;" x="333" xlink:href="#m6d9068cd4d" y="252"/>
      </g>
     </g>
     <g id="text_6">
      <!-- 250 -->
      <g transform="translate(323.45625 266.598437)scale(0.1 -0.1)">
       <use xlink:href="#DejaVuSans-50"/>
       <use x="63.623047" xlink:href="#DejaVuSans-53"/>
       <use x="127.246094" xlink:href="#DejaVuSans-48"/>
      </g>
     </g>
    </g>
    <g id="xtick_7">
     <g id="line2d_13">
      <path clip-path="url(#p12400d6977)" d="M 388.8 252 
L 388.8 34.56 
" style="fill:none;stroke:#b0b0b0;stroke-linecap:square;stroke-width:0.8;"/>
     </g>
     <g id="line2d_14">
      <g>
       <use style="stroke:#000000;stroke-width:0.8;" x="388.8" xlink:href="#m6d9068cd4d" y="252"/>
      </g>
     </g>
     <g id="text_7">
      <!-- 300 -->
      <g transform="translate(379.25625 266.598437)scale(0.1 -0.1)">
       <defs>
        <path d="M 40.578125 39.3125 
Q 47.65625 37.796875 51.625 33 
Q 55.609375 28.21875 55.609375 21.1875 
Q 55.609375 10.40625 48.1875 4.484375 
Q 40.765625 -1.421875 27.09375 -1.421875 
Q 22.515625 -1.421875 17.65625 -0.515625 
Q 12.796875 0.390625 7.625 2.203125 
L 7.625 11.71875 
Q 11.71875 9.328125 16.59375 8.109375 
Q 21.484375 6.890625 26.8125 6.890625 
Q 36.078125 6.890625 40.9375 10.546875 
Q 45.796875 14.203125 45.796875 21.1875 
Q 45.796875 27.640625 41.28125 31.265625 
Q 36.765625 34.90625 28.71875 34.90625 
L 20.21875 34.90625 
L 20.21875 43.015625 
L 29.109375 43.015625 
Q 36.375 43.015625 40.234375 45.921875 
Q 44.09375 48.828125 44.09375 54.296875 
Q 44.09375 59.90625 40.109375 62.90625 
Q 36.140625 65.921875 28.71875 65.921875 
Q 24.65625 65.921875 20.015625 65.03125 
Q 15.375 64.15625 9.8125 62.3125 
L 9.8125 71.09375 
Q 15.4375 72.65625 20.34375 73.4375 
Q 25.25 74.21875 29.59375 74.21875 
Q 40.828125 74.21875 47.359375 69.109375 
Q 53.90625 64.015625 53.90625 55.328125 
Q 53.90625 49.265625 50.4375 45.09375 
Q 46.96875 40.921875 40.578125 39.3125 
z
" id="DejaVuSans-51"/>
       </defs>
       <use xlink:href="#DejaVuSans-51"/>
       <use x="63.623047" xlink:href="#DejaVuSans-48"/>
       <use x="127.246094" xlink:href="#DejaVuSans-48"/>
      </g>
     </g>
    </g>
   </g>
   <g id="matplotlib.axis_2">
    <g id="ytick_1">
     <g id="line2d_15">
      <path clip-path="url(#p12400d6977)" d="M 54 233.88 
L 388.8 233.88 
" style="fill:none;stroke:#b0b0b0;stroke-linecap:square;stroke-width:0.8;"/>
     </g>
     <g id="line2d_16">
      <defs>
       <path d="M 0 0 
L -3.5 0 
" id="m652414281e" style="stroke:#000000;stroke-width:0.8;"/>
      </defs>
      <g>
       <use style="stroke:#000000;stroke-width:0.8;" x="54" xlink:href="#m652414281e" y="233.88"/>
      </g>
     </g>
     <g id="text_8">
      <!-- 0.0 -->
      <g transform="translate(31.096875 237.679219)scale(0.1 -0.1)">
       <defs>
        <path d="M 10.6875 12.40625 
L 21 12.40625 
L 21 0 
L 10.6875 0 
z
" id="DejaVuSans-46"/>
       </defs>
       <use xlink:href="#DejaVuSans-48"/>
       <use x="63.623047" xlink:href="#DejaVuSans-46"/>
       <use x="95.410156" xlink:href="#DejaVuSans-48"/>
      </g>
     </g>
    </g>
    <g id="ytick_2">
     <g id="line2d_17">
      <path clip-path="url(#p12400d6977)" d="M 54 197.64 
L 388.8 197.64 
" style="fill:none;stroke:#b0b0b0;stroke-linecap:square;stroke-width:0.8;"/>
     </g>
     <g id="line2d_18">
      <g>
       <use style="stroke:#000000;stroke-width:0.8;" x="54" xlink:href="#m652414281e" y="197.64"/>
      </g>
     </g>
     <g id="text_9">
      <!-- 0.2 -->
      <g transform="translate(31.096875 201.439219)scale(0.1 -0.1)">
       <use xlink:href="#DejaVuSans-48"/>
       <use x="63.623047" xlink:href="#DejaVuSans-46"/>
       <use x="95.410156" xlink:href="#DejaVuSans-50"/>
      </g>
     </g>
    </g>
    <g id="ytick_3">
     <g id="line2d_19">
      <path clip-path="url(#p12400d6977)" d="M 54 161.4 
L 388.8 161.4 
" style="fill:none;stroke:#b0b0b0;stroke-linecap:square;stroke-width:0.8;"/>
     </g>
     <g id="line2d_20">
      <g>
       <use style="stroke:#000000;stroke-width:0.8;" x="54" xlink:href="#m652414281e" y="161.4"/>
      </g>
     </g>
     <g id="text_10">
      <!-- 0.4 -->
      <g transform="translate(31.096875 165.199219)scale(0.1 -0.1)">
       <defs>
        <path d="M 37.796875 64.3125 
L 12.890625 25.390625 
L 37.796875 25.390625 
z
M 35.203125 72.90625 
L 47.609375 72.90625 
L 47.609375 25.390625 
L 58.015625 25.390625 
L 58.015625 17.1875 
L 47.609375 17.1875 
L 47.609375 0 
L 37.796875 0 
L 37.796875 17.1875 
L 4.890625 17.1875 
L 4.890625 26.703125 
z
" id="DejaVuSans-52"/>
       </defs>
       <use xlink:href="#DejaVuSans-48"/>
       <use x="63.623047" xlink:href="#DejaVuSans-46"/>
       <use x="95.410156" xlink:href="#DejaVuSans-52"/>
      </g>
     </g>
    </g>
    <g id="ytick_4">
     <g id="line2d_21">
      <path clip-path="url(#p12400d6977)" d="M 54 125.16 
L 388.8 125.16 
" style="fill:none;stroke:#b0b0b0;stroke-linecap:square;stroke-width:0.8;"/>
     </g>
     <g id="line2d_22">
      <g>
       <use style="stroke:#000000;stroke-width:0.8;" x="54" xlink:href="#m652414281e" y="125.16"/>
      </g>
     </g>
     <g id="text_11">
      <!-- 0.6 -->
      <g transform="translate(31.096875 128.959219)scale(0.1 -0.1)">
       <defs>
        <path d="M 33.015625 40.375 
Q 26.375 40.375 22.484375 35.828125 
Q 18.609375 31.296875 18.609375 23.390625 
Q 18.609375 15.53125 22.484375 10.953125 
Q 26.375 6.390625 33.015625 6.390625 
Q 39.65625 6.390625 43.53125 10.953125 
Q 47.40625 15.53125 47.40625 23.390625 
Q 47.40625 31.296875 43.53125 35.828125 
Q 39.65625 40.375 33.015625 40.375 
z
M 52.59375 71.296875 
L 52.59375 62.3125 
Q 48.875 64.0625 45.09375 64.984375 
Q 41.3125 65.921875 37.59375 65.921875 
Q 27.828125 65.921875 22.671875 59.328125 
Q 17.53125 52.734375 16.796875 39.40625 
Q 19.671875 43.65625 24.015625 45.921875 
Q 28.375 48.1875 33.59375 48.1875 
Q 44.578125 48.1875 50.953125 41.515625 
Q 57.328125 34.859375 57.328125 23.390625 
Q 57.328125 12.15625 50.6875 5.359375 
Q 44.046875 -1.421875 33.015625 -1.421875 
Q 20.359375 -1.421875 13.671875 8.265625 
Q 6.984375 17.96875 6.984375 36.375 
Q 6.984375 53.65625 15.1875 63.9375 
Q 23.390625 74.21875 37.203125 74.21875 
Q 40.921875 74.21875 44.703125 73.484375 
Q 48.484375 72.75 52.59375 71.296875 
z
" id="DejaVuSans-54"/>
       </defs>
       <use xlink:href="#DejaVuSans-48"/>
       <use x="63.623047" xlink:href="#DejaVuSans-46"/>
       <use x="95.410156" xlink:href="#DejaVuSans-54"/>
      </g>
     </g>
    </g>
    <g id="ytick_5">
     <g id="line2d_23">
      <path clip-path="url(#p12400d6977)" d="M 54 88.92 
L 388.8 88.92 
" style="fill:none;stroke:#b0b0b0;stroke-linecap:square;stroke-width:0.8;"/>
     </g>
     <g id="line2d_24">
      <g>
       <use style="stroke:#000000;stroke-width:0.8;" x="54" xlink:href="#m652414281e" y="88.92"/>
      </g>
     </g>
     <g id="text_12">
      <!-- 0.8 -->
      <g transform="translate(31.096875 92.719219)scale(0.1 -0.1)">
       <defs>
        <path d="M 31.78125 34.625 
Q 24.75 34.625 20.71875 30.859375 
Q 16.703125 27.09375 16.703125 20.515625 
Q 16.703125 13.921875 20.71875 10.15625 
Q 24.75 6.390625 31.78125 6.390625 
Q 38.8125 6.390625 42.859375 10.171875 
Q 46.921875 13.96875 46.921875 20.515625 
Q 46.921875 27.09375 42.890625 30.859375 
Q 38.875 34.625 31.78125 34.625 
z
M 21.921875 38.8125 
Q 15.578125 40.375 12.03125 44.71875 
Q 8.5 49.078125 8.5 55.328125 
Q 8.5 64.0625 14.71875 69.140625 
Q 20.953125 74.21875 31.78125 74.21875 
Q 42.671875 74.21875 48.875 69.140625 
Q 55.078125 64.0625 55.078125 55.328125 
Q 55.078125 49.078125 51.53125 44.71875 
Q 48 40.375 41.703125 38.8125 
Q 48.828125 37.15625 52.796875 32.3125 
Q 56.78125 27.484375 56.78125 20.515625 
Q 56.78125 9.90625 50.3125 4.234375 
Q 43.84375 -1.421875 31.78125 -1.421875 
Q 19.734375 -1.421875 13.25 4.234375 
Q 6.78125 9.90625 6.78125 20.515625 
Q 6.78125 27.484375 10.78125 32.3125 
Q 14.796875 37.15625 21.921875 38.8125 
z
M 18.3125 54.390625 
Q 18.3125 48.734375 21.84375 45.5625 
Q 25.390625 42.390625 31.78125 42.390625 
Q 38.140625 42.390625 41.71875 45.5625 
Q 45.3125 48.734375 45.3125 54.390625 
Q 45.3125 60.0625 41.71875 63.234375 
Q 38.140625 66.40625 31.78125 66.40625 
Q 25.390625 66.40625 21.84375 63.234375 
Q 18.3125 60.0625 18.3125 54.390625 
z
" id="DejaVuSans-56"/>
       </defs>
       <use xlink:href="#DejaVuSans-48"/>
       <use x="63.623047" xlink:href="#DejaVuSans-46"/>
       <use x="95.410156" xlink:href="#DejaVuSans-56"/>
      </g>
     </g>
    </g>
    <g id="ytick_6">
     <g id="line2d_25">
      <path clip-path="url(#p12400d6977)" d="M 54 52.68 
L 388.8 52.68 
" style="fill:none;stroke:#b0b0b0;stroke-linecap:square;stroke-width:0.8;"/>
     </g>
     <g id="line2d_26">
      <g>
       <use style="stroke:#000000;stroke-width:0.8;" x="54" xlink:href="#m652414281e" y="52.68"/>
      </g>
     </g>
     <g id="text_13">
      <!-- 1.0 -->
      <g transform="translate(31.096875 56.479219)scale(0.1 -0.1)">
       <use xlink:href="#DejaVuSans-49"/>
       <use x="63.623047" xlink:href="#DejaVuSans-46"/>
       <use x="95.410156" xlink:href="#DejaVuSans-48"/>
      </g>
     </g>
    </g>
   </g>
   <g id="line2d_27">
    <path clip-path="url(#p12400d6977)" d="M 54 52.68 
L 55.116 53.7672 
L 56.232 53.9484 
L 58.464 57.3912 
L 59.58 57.9348 
L 60.696 58.6596 
L 61.812 59.2032 
L 62.928 60.1092 
L 64.044 59.7468 
L 65.16 61.1964 
L 66.276 59.928 
L 67.392 62.8272 
L 68.508 64.458 
L 69.624 65.5452 
L 70.74 67.9008 
L 71.856 67.5384 
L 72.972 69.7128 
L 74.088 69.894 
L 75.204 69.7128 
L 76.32 70.0752 
L 77.436 72.7932 
L 78.552 75.1488 
L 79.668 74.7864 
L 80.784 74.0616 
L 81.9 75.6924 
L 83.016 76.236 
L 85.248 84.0276 
L 86.364 82.9404 
L 87.48 82.2156 
L 88.596 84.2088 
L 89.712 86.5644 
L 90.828 86.7456 
L 91.944 86.7456 
L 93.06 91.2756 
L 94.176 100.1544 
L 95.292 100.3356 
L 96.408 105.9528 
L 98.64 109.2144 
L 99.756 109.0332 
L 100.872 111.0264 
L 101.988 113.382 
L 103.104 112.8384 
L 104.22 112.6572 
L 105.336 117.3684 
L 106.452 117.912 
L 107.568 118.9992 
L 108.684 116.6436 
L 109.8 118.4556 
L 110.916 113.2008 
L 112.032 113.2008 
L 113.148 113.7444 
L 114.264 114.6504 
L 115.38 117.5496 
L 116.496 116.4624 
L 117.612 120.4488 
L 118.728 125.16 
L 119.844 124.6164 
L 120.96 127.6968 
L 122.076 126.7908 
L 123.192 124.7976 
L 124.308 126.972 
L 125.424 129.8712 
L 126.54 129.5088 
L 127.656 130.9584 
L 128.772 131.1396 
L 129.888 134.4012 
L 131.004 136.5756 
L 132.12 142.0116 
L 133.236 144.9108 
L 134.352 152.5212 
L 135.468 151.434 
L 136.584 151.7964 
L 137.7 147.9912 
L 138.816 146.904 
L 139.932 149.8032 
L 141.048 147.2664 
L 142.164 146.904 
L 143.28 147.81 
L 144.396 148.3536 
L 145.512 152.34 
L 146.628 157.5948 
L 147.744 158.8632 
L 148.86 160.3128 
L 149.976 157.776 
L 151.092 159.588 
L 152.208 160.6752 
L 154.44 164.118 
L 155.556 167.1984 
L 156.672 166.1112 
L 157.788 164.4804 
L 158.904 165.024 
L 160.02 162.1248 
L 161.136 160.3128 
L 162.252 157.776 
L 163.368 152.7024 
L 164.484 157.2324 
L 165.6 156.87 
L 166.716 158.1384 
L 167.832 161.5812 
L 168.948 157.2324 
L 170.064 156.5076 
L 172.296 152.7024 
L 173.412 151.7964 
L 174.528 153.4272 
L 175.644 151.0716 
L 176.76 148.1724 
L 177.876 148.716 
L 178.992 147.4476 
L 180.108 143.8236 
L 182.34 148.1724 
L 183.456 151.2528 
L 184.572 153.0648 
L 185.688 154.152 
L 186.804 156.6888 
L 187.92 155.4204 
L 189.036 151.434 
L 190.152 156.6888 
L 191.268 158.5008 
L 192.384 159.4068 
L 193.5 161.2188 
L 194.616 157.4136 
L 195.732 160.1316 
L 196.848 160.3128 
L 197.964 162.1248 
L 199.08 161.9436 
L 200.196 162.306 
L 201.312 161.4 
L 202.428 157.2324 
L 203.544 158.682 
L 205.776 163.0308 
L 206.892 161.9436 
L 208.008 165.3864 
L 209.124 165.93 
L 210.24 164.118 
L 211.356 165.5676 
L 212.472 163.7556 
L 213.588 166.1112 
L 214.704 166.2924 
L 215.82 163.3932 
L 216.936 155.058 
L 218.052 158.3196 
L 219.168 156.6888 
L 220.284 160.3128 
L 221.4 161.2188 
L 222.516 156.5076 
L 223.632 159.0444 
L 224.748 161.0376 
L 225.864 168.8292 
L 226.98 174.084 
L 228.096 174.99 
L 229.212 178.7952 
L 230.328 178.4328 
L 231.444 173.9028 
L 232.56 172.8156 
L 233.676 176.0772 
L 234.792 176.802 
L 235.908 175.1712 
L 237.024 176.9832 
L 238.14 173.9028 
L 239.256 176.4396 
L 240.372 175.3524 
L 241.488 174.084 
L 242.604 167.3796 
L 243.72 169.554 
L 244.836 169.9164 
L 245.952 170.8224 
L 247.068 172.6344 
L 248.184 178.614 
L 249.3 179.3388 
L 250.416 176.9832 
L 251.532 181.332 
L 252.648 180.9696 
L 253.764 180.2448 
L 254.88 182.4192 
L 255.996 182.238 
L 257.112 180.6072 
L 258.228 180.426 
L 260.46 176.2584 
L 261.576 178.0704 
L 262.692 184.2312 
L 263.808 185.862 
L 264.924 186.5868 
L 266.04 191.4792 
L 268.272 187.674 
L 269.388 184.7748 
L 270.504 181.332 
L 271.62 181.5132 
L 272.736 187.1304 
L 273.852 186.768 
L 274.968 187.8552 
L 276.084 187.3116 
L 277.2 186.2244 
L 278.316 187.3116 
L 279.432 186.5868 
L 280.548 187.4928 
L 281.664 189.1236 
L 282.78 187.8552 
L 283.896 186.4056 
L 285.012 188.9424 
L 286.128 190.0296 
L 287.244 189.3048 
L 288.36 191.298 
L 289.476 190.0296 
L 290.592 190.0296 
L 291.708 187.8552 
L 292.824 183.5064 
L 293.94 186.4056 
L 295.056 190.0296 
L 296.172 192.5664 
L 297.288 191.1168 
L 298.404 187.674 
L 299.52 186.0432 
L 300.636 186.5868 
L 301.752 184.7748 
L 302.868 181.1508 
L 303.984 178.0704 
L 305.1 177.708 
L 306.216 182.0568 
L 307.332 180.2448 
L 308.448 180.2448 
L 309.564 179.52 
L 310.68 181.6944 
L 311.796 186.768 
L 312.912 187.4928 
L 314.028 189.3048 
L 315.144 188.2176 
L 316.26 186.4056 
L 317.376 188.0364 
L 318.492 190.5732 
L 319.608 191.298 
L 320.724 195.1032 
L 321.84 195.6468 
L 322.956 193.4724 
L 324.072 191.6604 
L 325.188 192.204 
L 326.304 195.4656 
L 327.42 196.0092 
L 328.536 198.1836 
L 329.652 196.9152 
L 330.768 199.9956 
L 331.884 193.11 
L 333 194.016 
L 333 194.016 
" style="fill:none;stroke:#ff0000;stroke-linecap:square;stroke-width:1.5;"/>
   </g>
   <g id="line2d_28">
    <path clip-path="url(#p12400d6977)" d="M 54 233.88 
L 55.116 233.5176 
L 56.232 233.3364 
L 57.348 233.3364 
L 58.464 232.2492 
L 59.58 231.7056 
L 60.696 230.9808 
L 61.812 231.3432 
L 64.044 230.256 
L 65.16 227.538 
L 66.276 228.6252 
L 67.392 226.2696 
L 68.508 226.632 
L 69.624 225.3636 
L 70.74 222.6456 
L 71.856 222.2832 
L 72.972 220.29 
L 74.088 220.29 
L 75.204 220.8336 
L 76.32 221.7396 
L 77.436 221.0148 
L 78.552 220.1088 
L 80.784 220.1088 
L 81.9 220.8336 
L 83.016 220.29 
L 84.132 216.666 
L 85.248 214.6728 
L 86.364 215.5788 
L 87.48 215.5788 
L 88.596 215.9412 
L 89.712 215.0352 
L 90.828 215.5788 
L 91.944 214.1292 
L 94.176 208.512 
L 95.292 206.7 
L 96.408 201.6264 
L 97.524 201.8076 
L 98.64 202.5324 
L 99.756 202.7136 
L 100.872 199.2708 
L 101.988 198.3648 
L 103.104 197.8212 
L 104.22 197.64 
L 105.336 191.4792 
L 106.452 191.298 
L 107.568 192.204 
L 108.684 195.6468 
L 109.8 195.4656 
L 110.916 202.7136 
L 112.032 204.7068 
L 113.148 203.076 
L 114.264 202.8948 
L 115.38 204.5256 
L 116.496 203.2572 
L 117.612 200.9016 
L 118.728 199.2708 
L 120.96 199.2708 
L 122.076 197.64 
L 123.192 200.7204 
L 124.308 201.8076 
L 125.424 200.9016 
L 126.54 203.982 
L 127.656 206.1564 
L 128.772 205.2504 
L 129.888 205.4316 
L 131.004 203.4384 
L 132.12 200.5392 
L 133.236 200.358 
L 134.352 197.8212 
L 135.468 197.2776 
L 136.584 196.9152 
L 137.7 200.5392 
L 138.816 195.4656 
L 139.932 195.4656 
L 141.048 192.3852 
L 142.164 194.3784 
L 143.28 194.3784 
L 144.396 193.2912 
L 145.512 196.734 
L 146.628 193.8348 
L 147.744 192.0228 
L 148.86 192.5664 
L 149.976 193.4724 
L 151.092 193.2912 
L 152.208 189.6672 
L 153.324 193.11 
L 154.44 188.58 
L 155.556 187.8552 
L 156.672 190.7544 
L 157.788 187.8552 
L 158.904 188.7612 
L 160.02 190.0296 
L 161.136 190.0296 
L 162.252 191.4792 
L 163.368 193.4724 
L 164.484 189.6672 
L 165.6 188.7612 
L 166.716 189.6672 
L 167.832 189.8484 
L 168.948 197.64 
L 170.064 191.298 
L 171.18 188.2176 
L 172.296 187.3116 
L 173.412 188.2176 
L 174.528 186.9492 
L 175.644 189.1236 
L 176.76 186.5868 
L 177.876 187.674 
L 178.992 186.9492 
L 180.108 190.5732 
L 181.224 189.3048 
L 182.34 185.862 
L 183.456 181.5132 
L 184.572 183.8688 
L 185.688 182.7816 
L 186.804 187.8552 
L 187.92 188.0364 
L 189.036 191.6604 
L 190.152 188.3988 
L 191.268 185.862 
L 192.384 184.956 
L 193.5 182.4192 
L 194.616 188.9424 
L 195.732 186.2244 
L 196.848 182.238 
L 197.964 180.2448 
L 199.08 180.9696 
L 200.196 179.7012 
L 201.312 178.7952 
L 202.428 187.8552 
L 203.544 190.2108 
L 204.66 187.1304 
L 205.776 187.8552 
L 208.008 188.2176 
L 209.124 186.768 
L 210.24 192.3852 
L 211.356 191.4792 
L 212.472 186.768 
L 213.588 183.144 
L 214.704 185.1372 
L 215.82 184.7748 
L 216.936 187.674 
L 218.052 187.4928 
L 219.168 190.0296 
L 220.284 184.2312 
L 221.4 183.8688 
L 222.516 187.4928 
L 223.632 189.8484 
L 224.748 187.3116 
L 225.864 185.6808 
L 226.98 183.6876 
L 228.096 186.768 
L 229.212 183.6876 
L 230.328 184.2312 
L 231.444 183.8688 
L 232.56 186.4056 
L 233.676 185.862 
L 234.792 184.2312 
L 235.908 182.9628 
L 237.024 180.7884 
L 238.14 182.7816 
L 239.256 179.52 
L 240.372 178.0704 
L 241.488 179.8824 
L 242.604 182.6004 
L 243.72 181.8756 
L 244.836 183.3252 
L 245.952 180.6072 
L 247.068 184.5936 
L 248.184 178.2516 
L 249.3 178.0704 
L 250.416 179.1576 
L 251.532 174.6276 
L 252.648 175.896 
L 253.764 176.4396 
L 254.88 174.2652 
L 255.996 176.6208 
L 257.112 178.4328 
L 258.228 181.8756 
L 259.344 188.7612 
L 260.46 190.2108 
L 261.576 189.6672 
L 262.692 185.862 
L 263.808 186.0432 
L 264.924 182.238 
L 266.04 180.2448 
L 267.156 184.2312 
L 268.272 183.6876 
L 269.388 185.4996 
L 270.504 189.1236 
L 271.62 186.9492 
L 272.736 183.5064 
L 273.852 186.4056 
L 274.968 186.5868 
L 276.084 182.7816 
L 277.2 180.426 
L 278.316 178.614 
L 279.432 176.4396 
L 280.548 178.9764 
L 281.664 181.1508 
L 282.78 182.0568 
L 283.896 183.6876 
L 285.012 180.2448 
L 286.128 179.3388 
L 287.244 178.614 
L 288.36 178.7952 
L 289.476 181.6944 
L 290.592 182.238 
L 291.708 184.2312 
L 292.824 182.9628 
L 293.94 177.3456 
L 295.056 178.614 
L 296.172 173.9028 
L 297.288 173.9028 
L 298.404 174.8088 
L 299.52 176.802 
L 300.636 175.896 
L 301.752 177.1644 
L 302.868 179.1576 
L 303.984 177.708 
L 305.1 181.332 
L 306.216 181.1508 
L 307.332 182.6004 
L 308.448 186.768 
L 309.564 187.8552 
L 311.796 191.1168 
L 312.912 190.5732 
L 314.028 192.7476 
L 315.144 192.204 
L 316.26 192.5664 
L 317.376 188.9424 
L 318.492 187.674 
L 319.608 190.5732 
L 320.724 185.1372 
L 321.84 182.7816 
L 322.956 177.8892 
L 324.072 174.99 
L 326.304 173.5404 
L 327.42 173.5404 
L 328.536 174.8088 
L 329.652 175.5336 
L 330.768 173.9028 
L 331.884 176.9832 
L 333 174.4464 
L 333 174.4464 
" style="fill:none;stroke:#0000ff;stroke-linecap:square;stroke-width:1.5;"/>
   </g>
   <g id="line2d_29">
    <path clip-path="url(#p12400d6977)" d="M 54 233.88 
L 55.116 233.1552 
L 56.232 233.1552 
L 57.348 231.3432 
L 58.464 230.7996 
L 59.58 230.7996 
L 60.696 231.162 
L 61.812 230.0748 
L 62.928 229.5312 
L 64.044 230.6184 
L 65.16 232.068 
L 66.276 232.4304 
L 67.392 231.7056 
L 68.508 229.7124 
L 69.624 229.5312 
L 70.74 229.8936 
L 71.856 230.6184 
L 74.088 230.256 
L 75.204 229.8936 
L 76.32 228.6252 
L 77.436 226.9944 
L 78.552 225.726 
L 79.668 225.9072 
L 80.784 226.8132 
L 81.9 224.82 
L 83.016 224.6388 
L 84.132 224.6388 
L 85.248 223.008 
L 86.364 223.3704 
L 87.48 223.914 
L 89.712 220.29 
L 90.828 220.1088 
L 91.944 221.0148 
L 93.06 218.8404 
L 94.176 213.4044 
L 95.292 214.6728 
L 96.408 214.854 
L 98.64 211.5924 
L 99.756 210.8676 
L 100.872 212.4984 
L 101.988 210.324 
L 103.104 212.3172 
L 104.22 213.5856 
L 105.336 214.3104 
L 106.452 214.854 
L 107.568 213.042 
L 108.684 212.3172 
L 109.8 211.0488 
L 110.916 211.23 
L 112.032 209.2368 
L 113.148 210.1428 
L 114.264 210.1428 
L 115.38 205.794 
L 116.496 207.0624 
L 118.728 201.4452 
L 119.844 202.17 
L 120.96 203.2572 
L 122.076 202.5324 
L 123.192 199.9956 
L 124.308 199.2708 
L 125.424 195.6468 
L 126.54 195.1032 
L 127.656 194.7408 
L 128.772 196.3716 
L 129.888 192.7476 
L 131.004 192.3852 
L 132.12 188.2176 
L 133.236 188.3988 
L 135.468 185.1372 
L 136.584 186.4056 
L 137.7 189.3048 
L 138.816 193.4724 
L 139.932 190.5732 
L 141.048 194.922 
L 142.164 195.828 
L 143.28 194.922 
L 144.396 198.0024 
L 145.512 194.7408 
L 146.628 193.6536 
L 147.744 190.9356 
L 148.86 188.9424 
L 149.976 189.6672 
L 151.092 186.9492 
L 152.208 188.9424 
L 153.324 188.2176 
L 154.44 191.1168 
L 155.556 191.8416 
L 156.672 193.8348 
L 157.788 194.1972 
L 158.904 192.7476 
L 160.02 194.922 
L 161.136 197.64 
L 162.252 196.1904 
L 163.368 195.6468 
L 164.484 194.7408 
L 165.6 196.734 
L 166.716 194.1972 
L 168.948 188.0364 
L 171.18 194.016 
L 172.296 196.5528 
L 173.412 196.1904 
L 174.528 197.0964 
L 175.644 196.5528 
L 176.76 199.2708 
L 177.876 197.64 
L 178.992 198.7272 
L 180.108 198.546 
L 181.224 197.0964 
L 182.34 199.0896 
L 183.456 198.0024 
L 184.572 195.828 
L 185.688 197.64 
L 186.804 192.204 
L 187.92 192.7476 
L 189.036 195.1032 
L 190.152 193.8348 
L 191.268 194.7408 
L 192.384 193.4724 
L 193.5 192.9288 
L 194.616 190.2108 
L 195.732 191.1168 
L 196.848 195.828 
L 197.964 196.0092 
L 199.08 195.6468 
L 200.196 196.734 
L 201.312 201.4452 
L 202.428 199.0896 
L 203.544 192.7476 
L 204.66 194.5596 
L 205.776 193.11 
L 206.892 192.9288 
L 208.008 189.3048 
L 209.124 193.11 
L 210.24 192.3852 
L 211.356 193.6536 
L 212.472 199.452 
L 214.704 199.452 
L 215.82 199.8144 
L 216.936 204.3444 
L 218.052 203.8008 
L 219.168 202.7136 
L 220.284 202.3512 
L 221.4 202.17 
L 222.516 204.888 
L 223.632 200.5392 
L 224.748 199.8144 
L 225.864 197.0964 
L 226.98 190.392 
L 228.096 188.7612 
L 229.212 189.1236 
L 230.328 191.298 
L 231.444 194.7408 
L 232.56 193.11 
L 233.676 190.9356 
L 234.792 194.7408 
L 235.908 194.3784 
L 237.024 188.9424 
L 238.14 185.862 
L 239.256 186.768 
L 240.372 188.9424 
L 241.488 188.9424 
L 242.604 191.1168 
L 243.72 192.9288 
L 244.836 188.0364 
L 245.952 188.0364 
L 247.068 184.5936 
L 248.184 186.0432 
L 249.3 183.8688 
L 250.416 184.4124 
L 251.532 186.4056 
L 252.648 187.674 
L 253.764 188.0364 
L 254.88 186.4056 
L 255.996 183.144 
L 257.112 184.956 
L 258.228 181.5132 
L 259.344 179.3388 
L 260.46 182.7816 
L 261.576 182.4192 
L 262.692 184.5936 
L 263.808 184.7748 
L 264.924 188.2176 
L 266.04 186.9492 
L 267.156 189.1236 
L 268.272 189.8484 
L 269.388 189.6672 
L 270.504 188.3988 
L 271.62 189.8484 
L 272.736 188.3988 
L 273.852 188.58 
L 274.968 188.0364 
L 277.2 192.3852 
L 278.316 190.9356 
L 279.432 193.8348 
L 280.548 191.1168 
L 281.664 188.9424 
L 282.78 188.3988 
L 283.896 188.9424 
L 285.012 188.7612 
L 286.128 188.0364 
L 287.244 188.3988 
L 288.36 187.4928 
L 289.476 191.298 
L 290.592 190.2108 
L 291.708 191.1168 
L 292.824 196.5528 
L 293.94 198.3648 
L 295.056 194.1972 
L 296.172 196.9152 
L 297.288 194.922 
L 298.404 196.734 
L 299.52 197.0964 
L 300.636 195.1032 
L 301.752 200.7204 
L 302.868 201.6264 
L 303.984 205.4316 
L 305.1 199.9956 
L 306.216 203.076 
L 307.332 205.0692 
L 308.448 203.4384 
L 309.564 203.982 
L 310.68 199.452 
L 311.796 196.9152 
L 314.028 190.7544 
L 315.144 189.6672 
L 316.26 191.1168 
L 318.492 194.922 
L 319.608 194.922 
L 320.724 196.0092 
L 321.84 194.7408 
L 322.956 197.0964 
L 324.072 200.5392 
L 325.188 199.452 
L 327.42 193.11 
L 328.536 193.4724 
L 329.652 193.11 
L 330.768 191.4792 
L 331.884 194.5596 
L 333 195.6468 
L 333 195.6468 
" style="fill:none;stroke:#00bfbf;stroke-linecap:square;stroke-width:1.5;"/>
   </g>
   <g id="line2d_30">
    <path clip-path="url(#p12400d6977)" d="M 54 233.88 
L 59.58 233.88 
L 60.696 233.5176 
L 62.928 233.88 
L 66.276 233.3364 
L 67.392 233.5176 
L 68.508 233.5176 
L 69.624 233.88 
L 76.32 233.88 
L 77.436 233.5176 
L 78.552 233.3364 
L 79.668 233.5176 
L 80.784 233.3364 
L 81.9 232.974 
L 83.016 233.1552 
L 84.132 232.7928 
L 86.364 232.4304 
L 87.48 232.6116 
L 88.596 232.068 
L 89.712 232.4304 
L 90.828 231.8868 
L 93.06 232.974 
L 94.176 232.2492 
L 95.292 232.6116 
L 96.408 231.8868 
L 97.524 231.7056 
L 98.64 230.9808 
L 99.756 231.7056 
L 100.872 231.5244 
L 101.988 232.2492 
L 104.22 230.4372 
L 105.336 231.162 
L 106.452 230.256 
L 107.568 230.0748 
L 109.8 229.35 
L 110.916 227.1756 
L 112.032 227.1756 
L 113.148 227.3568 
L 114.264 226.632 
L 115.38 226.4508 
L 117.612 228.6252 
L 119.844 228.2628 
L 120.96 224.0952 
L 122.076 227.3568 
L 123.192 228.8064 
L 124.308 226.2696 
L 125.424 227.9004 
L 126.54 225.726 
L 127.656 222.4644 
L 128.772 221.5584 
L 131.004 221.9208 
L 132.12 223.5516 
L 133.236 220.6524 
L 134.352 217.2096 
L 135.468 220.4712 
L 136.584 219.2028 
L 137.7 216.4848 
L 138.816 218.478 
L 139.932 218.478 
L 141.048 219.7464 
L 142.164 217.2096 
L 143.28 217.2096 
L 144.396 214.6728 
L 145.512 210.5052 
L 146.628 209.2368 
L 147.744 212.4984 
L 148.86 212.4984 
L 149.976 213.4044 
L 151.092 214.4916 
L 152.208 215.0352 
L 153.324 210.6864 
L 154.44 210.5052 
L 155.556 207.4248 
L 156.672 203.6196 
L 157.788 207.7872 
L 158.904 207.7872 
L 160.02 207.2436 
L 161.136 206.3376 
L 162.252 208.8744 
L 163.368 212.4984 
L 164.484 212.6796 
L 165.6 211.9548 
L 166.716 212.3172 
L 167.832 211.7736 
L 168.948 211.4112 
L 170.064 215.3976 
L 171.18 217.3908 
L 173.412 218.1156 
L 174.528 216.8472 
L 175.644 217.572 
L 176.76 220.29 
L 177.876 220.29 
L 178.992 221.196 
L 180.108 221.3772 
L 181.224 221.9208 
L 182.34 221.196 
L 183.456 223.5516 
L 186.804 217.572 
L 187.92 218.1156 
L 189.036 216.1224 
L 190.152 215.3976 
L 191.268 215.2164 
L 193.5 217.7532 
L 194.616 217.7532 
L 196.848 215.9412 
L 197.964 215.9412 
L 200.196 215.5788 
L 201.312 212.6796 
L 202.428 210.1428 
L 203.544 212.6796 
L 204.66 211.7736 
L 205.776 210.324 
L 206.892 211.4112 
L 208.008 211.4112 
L 210.24 205.4316 
L 211.356 203.6196 
L 212.472 204.3444 
L 213.588 205.6128 
L 214.704 203.4384 
L 215.82 206.3376 
L 216.936 207.2436 
L 218.052 204.7068 
L 219.168 204.888 
L 220.284 207.4248 
L 221.4 207.0624 
L 222.516 205.4316 
L 223.632 204.888 
L 224.748 206.1564 
L 225.864 202.7136 
L 226.98 206.1564 
L 228.096 203.8008 
L 229.212 202.7136 
L 230.328 200.358 
L 231.444 201.8076 
L 232.56 201.9888 
L 233.676 201.4452 
L 234.792 198.546 
L 235.908 201.8076 
L 237.024 207.606 
L 238.14 211.7736 
L 239.256 211.5924 
L 240.372 211.9548 
L 241.488 211.4112 
L 242.604 213.2232 
L 243.72 209.9616 
L 244.836 213.042 
L 245.952 214.854 
L 247.068 212.4984 
L 248.184 211.4112 
L 249.3 213.042 
L 250.416 213.7668 
L 251.532 211.9548 
L 252.648 209.7804 
L 253.764 209.5992 
L 254.88 211.23 
L 255.996 212.3172 
L 257.112 210.324 
L 258.228 210.5052 
L 260.46 205.0692 
L 261.576 204.1632 
L 262.692 199.6332 
L 263.808 197.64 
L 264.924 197.2776 
L 266.04 195.6468 
L 267.156 191.4792 
L 268.272 193.11 
L 269.388 194.3784 
L 270.504 195.4656 
L 271.62 196.0092 
L 272.736 195.2844 
L 273.852 192.5664 
L 274.968 191.8416 
L 276.084 194.016 
L 277.2 195.2844 
L 278.316 197.4588 
L 279.432 197.4588 
L 280.548 196.734 
L 281.664 195.1032 
L 282.78 196.0092 
L 283.896 195.2844 
L 285.012 196.3716 
L 286.128 196.9152 
L 287.244 198.0024 
L 288.36 196.734 
L 289.476 191.298 
L 290.592 191.8416 
L 291.708 191.1168 
L 292.824 191.298 
L 293.94 192.204 
L 295.056 191.4792 
L 296.172 190.9356 
L 297.288 194.3784 
L 298.404 195.1032 
L 299.52 194.3784 
L 300.636 196.734 
L 301.752 191.6604 
L 303.984 193.11 
L 305.1 195.2844 
L 306.216 188.0364 
L 307.332 186.4056 
L 308.448 183.8688 
L 309.564 182.9628 
L 310.68 183.6876 
L 311.796 179.52 
L 312.912 182.4192 
L 314.028 181.5132 
L 315.144 184.2312 
L 317.376 184.2312 
L 318.492 181.1508 
L 319.608 177.5268 
L 320.724 178.0704 
L 321.84 181.1508 
L 322.956 185.862 
L 325.188 188.3988 
L 326.304 188.9424 
L 327.42 191.6604 
L 328.536 187.8552 
L 329.652 188.7612 
L 330.768 188.9424 
L 331.884 189.6672 
L 333 190.2108 
L 333 190.2108 
" style="fill:none;stroke:#00ff00;stroke-linecap:square;stroke-width:1.5;"/>
   </g>
   <g id="line2d_31">
    <path clip-path="url(#p12400d6977)" d="M 54 188.58 
L 333 188.58 
L 333 188.58 
" style="fill:none;stroke:#ff0000;stroke-dasharray:5.55,2.4;stroke-dashoffset:0;stroke-width:1.5;"/>
   </g>
   <g id="line2d_32">
    <path clip-path="url(#p12400d6977)" d="M 54 188.58 
L 333 188.58 
L 333 188.58 
" style="fill:none;stroke:#0000ff;stroke-dasharray:5.55,2.4;stroke-dashoffset:0;stroke-width:1.5;"/>
   </g>
   <g id="line2d_33">
    <path clip-path="url(#p12400d6977)" d="M 54 188.58 
L 333 188.58 
L 333 188.58 
" style="fill:none;stroke:#00bfbf;stroke-dasharray:5.55,2.4;stroke-dashoffset:0;stroke-width:1.5;"/>
   </g>
   <g id="line2d_34">
    <path clip-path="url(#p12400d6977)" d="M 54 188.58 
L 333 188.58 
L 333 188.58 
" style="fill:none;stroke:#1f77b4;stroke-dasharray:5.55,2.4;stroke-dashoffset:0;stroke-width:1.5;"/>
   </g>
   <g id="line2d_35">
    <path clip-path="url(#p12400d6977)" d="M 54 188.58 
L 333 188.58 
L 333 188.58 
" style="fill:none;stroke:#008000;stroke-dasharray:5.55,2.4;stroke-dashoffset:0;stroke-width:1.5;"/>
   </g>
   <g id="patch_3">
    <path d="M 54 252 
L 54 34.56 
" style="fill:none;stroke:#000000;stroke-linecap:square;stroke-linejoin:miter;stroke-width:0.8;"/>
   </g>
   <g id="patch_4">
    <path d="M 388.8 252 
L 388.8 34.56 
" style="fill:none;stroke:#000000;stroke-linecap:square;stroke-linejoin:miter;stroke-width:0.8;"/>
   </g>
   <g id="patch_5">
    <path d="M 54 252 
L 388.8 252 
" style="fill:none;stroke:#000000;stroke-linecap:square;stroke-linejoin:miter;stroke-width:0.8;"/>
   </g>
   <g id="patch_6">
    <path d="M 54 34.56 
L 388.8 34.56 
" style="fill:none;stroke:#000000;stroke-linecap:square;stroke-linejoin:miter;stroke-width:0.8;"/>
   </g>
   <g id="legend_1">
    <g id="patch_7">
     <path d="M 228.742188 174.663125 
L 381.8 174.663125 
Q 383.8 174.663125 383.8 172.663125 
L 383.8 41.56 
Q 383.8 39.56 381.8 39.56 
L 228.742188 39.56 
Q 226.742188 39.56 226.742188 41.56 
L 226.742188 172.663125 
Q 226.742188 174.663125 228.742188 174.663125 
z
" style="fill:#ffffff;opacity:0.8;stroke:#cccccc;stroke-linejoin:miter;"/>
    </g>
    <g id="line2d_36">
     <path d="M 230.742188 47.658437 
L 250.742188 47.658437 
" style="fill:none;stroke:#ff0000;stroke-linecap:square;stroke-width:1.5;"/>
    </g>
    <g id="line2d_37"/>
    <g id="text_14">
     <!-- share of genotype 00 -->
     <g transform="translate(258.742188 51.158437)scale(0.1 -0.1)">
      <defs>
       <path d="M 44.28125 53.078125 
L 44.28125 44.578125 
Q 40.484375 46.53125 36.375 47.5 
Q 32.28125 48.484375 27.875 48.484375 
Q 21.1875 48.484375 17.84375 46.4375 
Q 14.5 44.390625 14.5 40.28125 
Q 14.5 37.15625 16.890625 35.375 
Q 19.28125 33.59375 26.515625 31.984375 
L 29.59375 31.296875 
Q 39.15625 29.25 43.1875 25.515625 
Q 47.21875 21.78125 47.21875 15.09375 
Q 47.21875 7.46875 41.1875 3.015625 
Q 35.15625 -1.421875 24.609375 -1.421875 
Q 20.21875 -1.421875 15.453125 -0.5625 
Q 10.6875 0.296875 5.421875 2 
L 5.421875 11.28125 
Q 10.40625 8.6875 15.234375 7.390625 
Q 20.0625 6.109375 24.8125 6.109375 
Q 31.15625 6.109375 34.5625 8.28125 
Q 37.984375 10.453125 37.984375 14.40625 
Q 37.984375 18.0625 35.515625 20.015625 
Q 33.0625 21.96875 24.703125 23.78125 
L 21.578125 24.515625 
Q 13.234375 26.265625 9.515625 29.90625 
Q 5.8125 33.546875 5.8125 39.890625 
Q 5.8125 47.609375 11.28125 51.796875 
Q 16.75 56 26.8125 56 
Q 31.78125 56 36.171875 55.265625 
Q 40.578125 54.546875 44.28125 53.078125 
z
" id="DejaVuSans-115"/>
       <path d="M 54.890625 33.015625 
L 54.890625 0 
L 45.90625 0 
L 45.90625 32.71875 
Q 45.90625 40.484375 42.875 44.328125 
Q 39.84375 48.1875 33.796875 48.1875 
Q 26.515625 48.1875 22.3125 43.546875 
Q 18.109375 38.921875 18.109375 30.90625 
L 18.109375 0 
L 9.078125 0 
L 9.078125 75.984375 
L 18.109375 75.984375 
L 18.109375 46.1875 
Q 21.34375 51.125 25.703125 53.5625 
Q 30.078125 56 35.796875 56 
Q 45.21875 56 50.046875 50.171875 
Q 54.890625 44.34375 54.890625 33.015625 
z
" id="DejaVuSans-104"/>
       <path d="M 34.28125 27.484375 
Q 23.390625 27.484375 19.1875 25 
Q 14.984375 22.515625 14.984375 16.5 
Q 14.984375 11.71875 18.140625 8.90625 
Q 21.296875 6.109375 26.703125 6.109375 
Q 34.1875 6.109375 38.703125 11.40625 
Q 43.21875 16.703125 43.21875 25.484375 
L 43.21875 27.484375 
z
M 52.203125 31.203125 
L 52.203125 0 
L 43.21875 0 
L 43.21875 8.296875 
Q 40.140625 3.328125 35.546875 0.953125 
Q 30.953125 -1.421875 24.3125 -1.421875 
Q 15.921875 -1.421875 10.953125 3.296875 
Q 6 8.015625 6 15.921875 
Q 6 25.140625 12.171875 29.828125 
Q 18.359375 34.515625 30.609375 34.515625 
L 43.21875 34.515625 
L 43.21875 35.40625 
Q 43.21875 41.609375 39.140625 45 
Q 35.0625 48.390625 27.6875 48.390625 
Q 23 48.390625 18.546875 47.265625 
Q 14.109375 46.140625 10.015625 43.890625 
L 10.015625 52.203125 
Q 14.9375 54.109375 19.578125 55.046875 
Q 24.21875 56 28.609375 56 
Q 40.484375 56 46.34375 49.84375 
Q 52.203125 43.703125 52.203125 31.203125 
z
" id="DejaVuSans-97"/>
       <path d="M 41.109375 46.296875 
Q 39.59375 47.171875 37.8125 47.578125 
Q 36.03125 48 33.890625 48 
Q 26.265625 48 22.1875 43.046875 
Q 18.109375 38.09375 18.109375 28.8125 
L 18.109375 0 
L 9.078125 0 
L 9.078125 54.6875 
L 18.109375 54.6875 
L 18.109375 46.1875 
Q 20.953125 51.171875 25.484375 53.578125 
Q 30.03125 56 36.53125 56 
Q 37.453125 56 38.578125 55.875 
Q 39.703125 55.765625 41.0625 55.515625 
z
" id="DejaVuSans-114"/>
       <path d="M 56.203125 29.59375 
L 56.203125 25.203125 
L 14.890625 25.203125 
Q 15.484375 15.921875 20.484375 11.0625 
Q 25.484375 6.203125 34.421875 6.203125 
Q 39.59375 6.203125 44.453125 7.46875 
Q 49.3125 8.734375 54.109375 11.28125 
L 54.109375 2.78125 
Q 49.265625 0.734375 44.1875 -0.34375 
Q 39.109375 -1.421875 33.890625 -1.421875 
Q 20.796875 -1.421875 13.15625 6.1875 
Q 5.515625 13.8125 5.515625 26.8125 
Q 5.515625 40.234375 12.765625 48.109375 
Q 20.015625 56 32.328125 56 
Q 43.359375 56 49.78125 48.890625 
Q 56.203125 41.796875 56.203125 29.59375 
z
M 47.21875 32.234375 
Q 47.125 39.59375 43.09375 43.984375 
Q 39.0625 48.390625 32.421875 48.390625 
Q 24.90625 48.390625 20.390625 44.140625 
Q 15.875 39.890625 15.1875 32.171875 
z
" id="DejaVuSans-101"/>
       <path id="DejaVuSans-32"/>
       <path d="M 30.609375 48.390625 
Q 23.390625 48.390625 19.1875 42.75 
Q 14.984375 37.109375 14.984375 27.296875 
Q 14.984375 17.484375 19.15625 11.84375 
Q 23.34375 6.203125 30.609375 6.203125 
Q 37.796875 6.203125 41.984375 11.859375 
Q 46.1875 17.53125 46.1875 27.296875 
Q 46.1875 37.015625 41.984375 42.703125 
Q 37.796875 48.390625 30.609375 48.390625 
z
M 30.609375 56 
Q 42.328125 56 49.015625 48.375 
Q 55.71875 40.765625 55.71875 27.296875 
Q 55.71875 13.875 49.015625 6.21875 
Q 42.328125 -1.421875 30.609375 -1.421875 
Q 18.84375 -1.421875 12.171875 6.21875 
Q 5.515625 13.875 5.515625 27.296875 
Q 5.515625 40.765625 12.171875 48.375 
Q 18.84375 56 30.609375 56 
z
" id="DejaVuSans-111"/>
       <path d="M 37.109375 75.984375 
L 37.109375 68.5 
L 28.515625 68.5 
Q 23.6875 68.5 21.796875 66.546875 
Q 19.921875 64.59375 19.921875 59.515625 
L 19.921875 54.6875 
L 34.71875 54.6875 
L 34.71875 47.703125 
L 19.921875 47.703125 
L 19.921875 0 
L 10.890625 0 
L 10.890625 47.703125 
L 2.296875 47.703125 
L 2.296875 54.6875 
L 10.890625 54.6875 
L 10.890625 58.5 
Q 10.890625 67.625 15.140625 71.796875 
Q 19.390625 75.984375 28.609375 75.984375 
z
" id="DejaVuSans-102"/>
       <path d="M 45.40625 27.984375 
Q 45.40625 37.75 41.375 43.109375 
Q 37.359375 48.484375 30.078125 48.484375 
Q 22.859375 48.484375 18.828125 43.109375 
Q 14.796875 37.75 14.796875 27.984375 
Q 14.796875 18.265625 18.828125 12.890625 
Q 22.859375 7.515625 30.078125 7.515625 
Q 37.359375 7.515625 41.375 12.890625 
Q 45.40625 18.265625 45.40625 27.984375 
z
M 54.390625 6.78125 
Q 54.390625 -7.171875 48.1875 -13.984375 
Q 42 -20.796875 29.203125 -20.796875 
Q 24.46875 -20.796875 20.265625 -20.09375 
Q 16.0625 -19.390625 12.109375 -17.921875 
L 12.109375 -9.1875 
Q 16.0625 -11.328125 19.921875 -12.34375 
Q 23.78125 -13.375 27.78125 -13.375 
Q 36.625 -13.375 41.015625 -8.765625 
Q 45.40625 -4.15625 45.40625 5.171875 
L 45.40625 9.625 
Q 42.625 4.78125 38.28125 2.390625 
Q 33.9375 0 27.875 0 
Q 17.828125 0 11.671875 7.65625 
Q 5.515625 15.328125 5.515625 27.984375 
Q 5.515625 40.671875 11.671875 48.328125 
Q 17.828125 56 27.875 56 
Q 33.9375 56 38.28125 53.609375 
Q 42.625 51.21875 45.40625 46.390625 
L 45.40625 54.6875 
L 54.390625 54.6875 
z
" id="DejaVuSans-103"/>
       <path d="M 54.890625 33.015625 
L 54.890625 0 
L 45.90625 0 
L 45.90625 32.71875 
Q 45.90625 40.484375 42.875 44.328125 
Q 39.84375 48.1875 33.796875 48.1875 
Q 26.515625 48.1875 22.3125 43.546875 
Q 18.109375 38.921875 18.109375 30.90625 
L 18.109375 0 
L 9.078125 0 
L 9.078125 54.6875 
L 18.109375 54.6875 
L 18.109375 46.1875 
Q 21.34375 51.125 25.703125 53.5625 
Q 30.078125 56 35.796875 56 
Q 45.21875 56 50.046875 50.171875 
Q 54.890625 44.34375 54.890625 33.015625 
z
" id="DejaVuSans-110"/>
       <path d="M 18.3125 70.21875 
L 18.3125 54.6875 
L 36.8125 54.6875 
L 36.8125 47.703125 
L 18.3125 47.703125 
L 18.3125 18.015625 
Q 18.3125 11.328125 20.140625 9.421875 
Q 21.96875 7.515625 27.59375 7.515625 
L 36.8125 7.515625 
L 36.8125 0 
L 27.59375 0 
Q 17.1875 0 13.234375 3.875 
Q 9.28125 7.765625 9.28125 18.015625 
L 9.28125 47.703125 
L 2.6875 47.703125 
L 2.6875 54.6875 
L 9.28125 54.6875 
L 9.28125 70.21875 
z
" id="DejaVuSans-116"/>
       <path d="M 32.171875 -5.078125 
Q 28.375 -14.84375 24.75 -17.8125 
Q 21.140625 -20.796875 15.09375 -20.796875 
L 7.90625 -20.796875 
L 7.90625 -13.28125 
L 13.1875 -13.28125 
Q 16.890625 -13.28125 18.9375 -11.515625 
Q 21 -9.765625 23.484375 -3.21875 
L 25.09375 0.875 
L 2.984375 54.6875 
L 12.5 54.6875 
L 29.59375 11.921875 
L 46.6875 54.6875 
L 56.203125 54.6875 
z
" id="DejaVuSans-121"/>
       <path d="M 18.109375 8.203125 
L 18.109375 -20.796875 
L 9.078125 -20.796875 
L 9.078125 54.6875 
L 18.109375 54.6875 
L 18.109375 46.390625 
Q 20.953125 51.265625 25.265625 53.625 
Q 29.59375 56 35.59375 56 
Q 45.5625 56 51.78125 48.09375 
Q 58.015625 40.1875 58.015625 27.296875 
Q 58.015625 14.40625 51.78125 6.484375 
Q 45.5625 -1.421875 35.59375 -1.421875 
Q 29.59375 -1.421875 25.265625 0.953125 
Q 20.953125 3.328125 18.109375 8.203125 
z
M 48.6875 27.296875 
Q 48.6875 37.203125 44.609375 42.84375 
Q 40.53125 48.484375 33.40625 48.484375 
Q 26.265625 48.484375 22.1875 42.84375 
Q 18.109375 37.203125 18.109375 27.296875 
Q 18.109375 17.390625 22.1875 11.75 
Q 26.265625 6.109375 33.40625 6.109375 
Q 40.53125 6.109375 44.609375 11.75 
Q 48.6875 17.390625 48.6875 27.296875 
z
" id="DejaVuSans-112"/>
      </defs>
      <use xlink:href="#DejaVuSans-115"/>
      <use x="52.099609" xlink:href="#DejaVuSans-104"/>
      <use x="115.478516" xlink:href="#DejaVuSans-97"/>
      <use x="176.757812" xlink:href="#DejaVuSans-114"/>
      <use x="215.621094" xlink:href="#DejaVuSans-101"/>
      <use x="277.144531" xlink:href="#DejaVuSans-32"/>
      <use x="308.931641" xlink:href="#DejaVuSans-111"/>
      <use x="370.113281" xlink:href="#DejaVuSans-102"/>
      <use x="405.318359" xlink:href="#DejaVuSans-32"/>
      <use x="437.105469" xlink:href="#DejaVuSans-103"/>
      <use x="500.582031" xlink:href="#DejaVuSans-101"/>
      <use x="562.105469" xlink:href="#DejaVuSans-110"/>
      <use x="625.484375" xlink:href="#DejaVuSans-111"/>
      <use x="686.666016" xlink:href="#DejaVuSans-116"/>
      <use x="725.875" xlink:href="#DejaVuSans-121"/>
      <use x="785.054688" xlink:href="#DejaVuSans-112"/>
      <use x="848.53125" xlink:href="#DejaVuSans-101"/>
      <use x="910.054688" xlink:href="#DejaVuSans-32"/>
      <use x="941.841797" xlink:href="#DejaVuSans-48"/>
      <use x="1005.464844" xlink:href="#DejaVuSans-48"/>
     </g>
    </g>
    <g id="line2d_38">
     <path d="M 230.742188 62.336563 
L 250.742188 62.336563 
" style="fill:none;stroke:#0000ff;stroke-linecap:square;stroke-width:1.5;"/>
    </g>
    <g id="line2d_39"/>
    <g id="text_15">
     <!-- share of genotype 01 -->
     <g transform="translate(258.742188 65.836563)scale(0.1 -0.1)">
      <use xlink:href="#DejaVuSans-115"/>
      <use x="52.099609" xlink:href="#DejaVuSans-104"/>
      <use x="115.478516" xlink:href="#DejaVuSans-97"/>
      <use x="176.757812" xlink:href="#DejaVuSans-114"/>
      <use x="215.621094" xlink:href="#DejaVuSans-101"/>
      <use x="277.144531" xlink:href="#DejaVuSans-32"/>
      <use x="308.931641" xlink:href="#DejaVuSans-111"/>
      <use x="370.113281" xlink:href="#DejaVuSans-102"/>
      <use x="405.318359" xlink:href="#DejaVuSans-32"/>
      <use x="437.105469" xlink:href="#DejaVuSans-103"/>
      <use x="500.582031" xlink:href="#DejaVuSans-101"/>
      <use x="562.105469" xlink:href="#DejaVuSans-110"/>
      <use x="625.484375" xlink:href="#DejaVuSans-111"/>
      <use x="686.666016" xlink:href="#DejaVuSans-116"/>
      <use x="725.875" xlink:href="#DejaVuSans-121"/>
      <use x="785.054688" xlink:href="#DejaVuSans-112"/>
      <use x="848.53125" xlink:href="#DejaVuSans-101"/>
      <use x="910.054688" xlink:href="#DejaVuSans-32"/>
      <use x="941.841797" xlink:href="#DejaVuSans-48"/>
      <use x="1005.464844" xlink:href="#DejaVuSans-49"/>
     </g>
    </g>
    <g id="line2d_40">
     <path d="M 230.742188 77.014687 
L 250.742188 77.014687 
" style="fill:none;stroke:#00bfbf;stroke-linecap:square;stroke-width:1.5;"/>
    </g>
    <g id="line2d_41"/>
    <g id="text_16">
     <!-- share of genotype 10 -->
     <g transform="translate(258.742188 80.514687)scale(0.1 -0.1)">
      <use xlink:href="#DejaVuSans-115"/>
      <use x="52.099609" xlink:href="#DejaVuSans-104"/>
      <use x="115.478516" xlink:href="#DejaVuSans-97"/>
      <use x="176.757812" xlink:href="#DejaVuSans-114"/>
      <use x="215.621094" xlink:href="#DejaVuSans-101"/>
      <use x="277.144531" xlink:href="#DejaVuSans-32"/>
      <use x="308.931641" xlink:href="#DejaVuSans-111"/>
      <use x="370.113281" xlink:href="#DejaVuSans-102"/>
      <use x="405.318359" xlink:href="#DejaVuSans-32"/>
      <use x="437.105469" xlink:href="#DejaVuSans-103"/>
      <use x="500.582031" xlink:href="#DejaVuSans-101"/>
      <use x="562.105469" xlink:href="#DejaVuSans-110"/>
      <use x="625.484375" xlink:href="#DejaVuSans-111"/>
      <use x="686.666016" xlink:href="#DejaVuSans-116"/>
      <use x="725.875" xlink:href="#DejaVuSans-121"/>
      <use x="785.054688" xlink:href="#DejaVuSans-112"/>
      <use x="848.53125" xlink:href="#DejaVuSans-101"/>
      <use x="910.054688" xlink:href="#DejaVuSans-32"/>
      <use x="941.841797" xlink:href="#DejaVuSans-49"/>
      <use x="1005.464844" xlink:href="#DejaVuSans-48"/>
     </g>
    </g>
    <g id="line2d_42">
     <path d="M 230.742188 91.692813 
L 250.742188 91.692813 
" style="fill:none;stroke:#00ff00;stroke-linecap:square;stroke-width:1.5;"/>
    </g>
    <g id="line2d_43"/>
    <g id="text_17">
     <!-- share of genotype 11 -->
     <g transform="translate(258.742188 95.192813)scale(0.1 -0.1)">
      <use xlink:href="#DejaVuSans-115"/>
      <use x="52.099609" xlink:href="#DejaVuSans-104"/>
      <use x="115.478516" xlink:href="#DejaVuSans-97"/>
      <use x="176.757812" xlink:href="#DejaVuSans-114"/>
      <use x="215.621094" xlink:href="#DejaVuSans-101"/>
      <use x="277.144531" xlink:href="#DejaVuSans-32"/>
      <use x="308.931641" xlink:href="#DejaVuSans-111"/>
      <use x="370.113281" xlink:href="#DejaVuSans-102"/>
      <use x="405.318359" xlink:href="#DejaVuSans-32"/>
      <use x="437.105469" xlink:href="#DejaVuSans-103"/>
      <use x="500.582031" xlink:href="#DejaVuSans-101"/>
      <use x="562.105469" xlink:href="#DejaVuSans-110"/>
      <use x="625.484375" xlink:href="#DejaVuSans-111"/>
      <use x="686.666016" xlink:href="#DejaVuSans-116"/>
      <use x="725.875" xlink:href="#DejaVuSans-121"/>
      <use x="785.054688" xlink:href="#DejaVuSans-112"/>
      <use x="848.53125" xlink:href="#DejaVuSans-101"/>
      <use x="910.054688" xlink:href="#DejaVuSans-32"/>
      <use x="941.841797" xlink:href="#DejaVuSans-49"/>
      <use x="1005.464844" xlink:href="#DejaVuSans-49"/>
     </g>
    </g>
    <g id="line2d_44">
     <path d="M 230.742188 106.370937 
L 250.742188 106.370937 
" style="fill:none;stroke:#ff0000;stroke-dasharray:5.55,2.4;stroke-dashoffset:0;stroke-width:1.5;"/>
    </g>
    <g id="line2d_45"/>
    <g id="text_18">
     <!-- fitness of strategy 00 -->
     <g transform="translate(258.742188 109.870937)scale(0.1 -0.1)">
      <defs>
       <path d="M 9.421875 54.6875 
L 18.40625 54.6875 
L 18.40625 0 
L 9.421875 0 
z
M 9.421875 75.984375 
L 18.40625 75.984375 
L 18.40625 64.59375 
L 9.421875 64.59375 
z
" id="DejaVuSans-105"/>
      </defs>
      <use xlink:href="#DejaVuSans-102"/>
      <use x="35.205078" xlink:href="#DejaVuSans-105"/>
      <use x="62.988281" xlink:href="#DejaVuSans-116"/>
      <use x="102.197266" xlink:href="#DejaVuSans-110"/>
      <use x="165.576172" xlink:href="#DejaVuSans-101"/>
      <use x="227.099609" xlink:href="#DejaVuSans-115"/>
      <use x="279.199219" xlink:href="#DejaVuSans-115"/>
      <use x="331.298828" xlink:href="#DejaVuSans-32"/>
      <use x="363.085938" xlink:href="#DejaVuSans-111"/>
      <use x="424.267578" xlink:href="#DejaVuSans-102"/>
      <use x="459.472656" xlink:href="#DejaVuSans-32"/>
      <use x="491.259766" xlink:href="#DejaVuSans-115"/>
      <use x="543.359375" xlink:href="#DejaVuSans-116"/>
      <use x="582.568359" xlink:href="#DejaVuSans-114"/>
      <use x="623.681641" xlink:href="#DejaVuSans-97"/>
      <use x="684.960938" xlink:href="#DejaVuSans-116"/>
      <use x="724.169922" xlink:href="#DejaVuSans-101"/>
      <use x="785.693359" xlink:href="#DejaVuSans-103"/>
      <use x="849.169922" xlink:href="#DejaVuSans-121"/>
      <use x="908.349609" xlink:href="#DejaVuSans-32"/>
      <use x="940.136719" xlink:href="#DejaVuSans-48"/>
      <use x="1003.759766" xlink:href="#DejaVuSans-48"/>
     </g>
    </g>
    <g id="line2d_46">
     <path d="M 230.742188 121.049062 
L 250.742188 121.049062 
" style="fill:none;stroke:#0000ff;stroke-dasharray:5.55,2.4;stroke-dashoffset:0;stroke-width:1.5;"/>
    </g>
    <g id="line2d_47"/>
    <g id="text_19">
     <!-- fitness of strategy 01 -->
     <g transform="translate(258.742188 124.549062)scale(0.1 -0.1)">
      <use xlink:href="#DejaVuSans-102"/>
      <use x="35.205078" xlink:href="#DejaVuSans-105"/>
      <use x="62.988281" xlink:href="#DejaVuSans-116"/>
      <use x="102.197266" xlink:href="#DejaVuSans-110"/>
      <use x="165.576172" xlink:href="#DejaVuSans-101"/>
      <use x="227.099609" xlink:href="#DejaVuSans-115"/>
      <use x="279.199219" xlink:href="#DejaVuSans-115"/>
      <use x="331.298828" xlink:href="#DejaVuSans-32"/>
      <use x="363.085938" xlink:href="#DejaVuSans-111"/>
      <use x="424.267578" xlink:href="#DejaVuSans-102"/>
      <use x="459.472656" xlink:href="#DejaVuSans-32"/>
      <use x="491.259766" xlink:href="#DejaVuSans-115"/>
      <use x="543.359375" xlink:href="#DejaVuSans-116"/>
      <use x="582.568359" xlink:href="#DejaVuSans-114"/>
      <use x="623.681641" xlink:href="#DejaVuSans-97"/>
      <use x="684.960938" xlink:href="#DejaVuSans-116"/>
      <use x="724.169922" xlink:href="#DejaVuSans-101"/>
      <use x="785.693359" xlink:href="#DejaVuSans-103"/>
      <use x="849.169922" xlink:href="#DejaVuSans-121"/>
      <use x="908.349609" xlink:href="#DejaVuSans-32"/>
      <use x="940.136719" xlink:href="#DejaVuSans-48"/>
      <use x="1003.759766" xlink:href="#DejaVuSans-49"/>
     </g>
    </g>
    <g id="line2d_48">
     <path d="M 230.742188 135.727187 
L 250.742188 135.727187 
" style="fill:none;stroke:#00bfbf;stroke-dasharray:5.55,2.4;stroke-dashoffset:0;stroke-width:1.5;"/>
    </g>
    <g id="line2d_49"/>
    <g id="text_20">
     <!-- fitness of strategy 10 -->
     <g transform="translate(258.742188 139.227187)scale(0.1 -0.1)">
      <use xlink:href="#DejaVuSans-102"/>
      <use x="35.205078" xlink:href="#DejaVuSans-105"/>
      <use x="62.988281" xlink:href="#DejaVuSans-116"/>
      <use x="102.197266" xlink:href="#DejaVuSans-110"/>
      <use x="165.576172" xlink:href="#DejaVuSans-101"/>
      <use x="227.099609" xlink:href="#DejaVuSans-115"/>
      <use x="279.199219" xlink:href="#DejaVuSans-115"/>
      <use x="331.298828" xlink:href="#DejaVuSans-32"/>
      <use x="363.085938" xlink:href="#DejaVuSans-111"/>
      <use x="424.267578" xlink:href="#DejaVuSans-102"/>
      <use x="459.472656" xlink:href="#DejaVuSans-32"/>
      <use x="491.259766" xlink:href="#DejaVuSans-115"/>
      <use x="543.359375" xlink:href="#DejaVuSans-116"/>
      <use x="582.568359" xlink:href="#DejaVuSans-114"/>
      <use x="623.681641" xlink:href="#DejaVuSans-97"/>
      <use x="684.960938" xlink:href="#DejaVuSans-116"/>
      <use x="724.169922" xlink:href="#DejaVuSans-101"/>
      <use x="785.693359" xlink:href="#DejaVuSans-103"/>
      <use x="849.169922" xlink:href="#DejaVuSans-121"/>
      <use x="908.349609" xlink:href="#DejaVuSans-32"/>
      <use x="940.136719" xlink:href="#DejaVuSans-49"/>
      <use x="1003.759766" xlink:href="#DejaVuSans-48"/>
     </g>
    </g>
    <g id="line2d_50">
     <path d="M 230.742188 150.405312 
L 250.742188 150.405312 
" style="fill:none;stroke:#1f77b4;stroke-dasharray:5.55,2.4;stroke-dashoffset:0;stroke-width:1.5;"/>
    </g>
    <g id="line2d_51"/>
    <g id="text_21">
     <!-- fitness of strategy 11 -->
     <g transform="translate(258.742188 153.905312)scale(0.1 -0.1)">
      <use xlink:href="#DejaVuSans-102"/>
      <use x="35.205078" xlink:href="#DejaVuSans-105"/>
      <use x="62.988281" xlink:href="#DejaVuSans-116"/>
      <use x="102.197266" xlink:href="#DejaVuSans-110"/>
      <use x="165.576172" xlink:href="#DejaVuSans-101"/>
      <use x="227.099609" xlink:href="#DejaVuSans-115"/>
      <use x="279.199219" xlink:href="#DejaVuSans-115"/>
      <use x="331.298828" xlink:href="#DejaVuSans-32"/>
      <use x="363.085938" xlink:href="#DejaVuSans-111"/>
      <use x="424.267578" xlink:href="#DejaVuSans-102"/>
      <use x="459.472656" xlink:href="#DejaVuSans-32"/>
      <use x="491.259766" xlink:href="#DejaVuSans-115"/>
      <use x="543.359375" xlink:href="#DejaVuSans-116"/>
      <use x="582.568359" xlink:href="#DejaVuSans-114"/>
      <use x="623.681641" xlink:href="#DejaVuSans-97"/>
      <use x="684.960938" xlink:href="#DejaVuSans-116"/>
      <use x="724.169922" xlink:href="#DejaVuSans-101"/>
      <use x="785.693359" xlink:href="#DejaVuSans-103"/>
      <use x="849.169922" xlink:href="#DejaVuSans-121"/>
      <use x="908.349609" xlink:href="#DejaVuSans-32"/>
      <use x="940.136719" xlink:href="#DejaVuSans-49"/>
      <use x="1003.759766" xlink:href="#DejaVuSans-49"/>
     </g>
    </g>
    <g id="line2d_52">
     <path d="M 230.742188 165.083437 
L 250.742188 165.083437 
" style="fill:none;stroke:#008000;stroke-dasharray:5.55,2.4;stroke-dashoffset:0;stroke-width:1.5;"/>
    </g>
    <g id="line2d_53"/>
    <g id="text_22">
     <!-- mean population fitness -->
     <g transform="translate(258.742188 168.583437)scale(0.1 -0.1)">
      <defs>
       <path d="M 52 44.1875 
Q 55.375 50.25 60.0625 53.125 
Q 64.75 56 71.09375 56 
Q 79.640625 56 84.28125 50.015625 
Q 88.921875 44.046875 88.921875 33.015625 
L 88.921875 0 
L 79.890625 0 
L 79.890625 32.71875 
Q 79.890625 40.578125 77.09375 44.375 
Q 74.3125 48.1875 68.609375 48.1875 
Q 61.625 48.1875 57.5625 43.546875 
Q 53.515625 38.921875 53.515625 30.90625 
L 53.515625 0 
L 44.484375 0 
L 44.484375 32.71875 
Q 44.484375 40.625 41.703125 44.40625 
Q 38.921875 48.1875 33.109375 48.1875 
Q 26.21875 48.1875 22.15625 43.53125 
Q 18.109375 38.875 18.109375 30.90625 
L 18.109375 0 
L 9.078125 0 
L 9.078125 54.6875 
L 18.109375 54.6875 
L 18.109375 46.1875 
Q 21.1875 51.21875 25.484375 53.609375 
Q 29.78125 56 35.6875 56 
Q 41.65625 56 45.828125 52.96875 
Q 50 49.953125 52 44.1875 
z
" id="DejaVuSans-109"/>
       <path d="M 8.5 21.578125 
L 8.5 54.6875 
L 17.484375 54.6875 
L 17.484375 21.921875 
Q 17.484375 14.15625 20.5 10.265625 
Q 23.53125 6.390625 29.59375 6.390625 
Q 36.859375 6.390625 41.078125 11.03125 
Q 45.3125 15.671875 45.3125 23.6875 
L 45.3125 54.6875 
L 54.296875 54.6875 
L 54.296875 0 
L 45.3125 0 
L 45.3125 8.40625 
Q 42.046875 3.421875 37.71875 1 
Q 33.40625 -1.421875 27.6875 -1.421875 
Q 18.265625 -1.421875 13.375 4.4375 
Q 8.5 10.296875 8.5 21.578125 
z
M 31.109375 56 
z
" id="DejaVuSans-117"/>
       <path d="M 9.421875 75.984375 
L 18.40625 75.984375 
L 18.40625 0 
L 9.421875 0 
z
" id="DejaVuSans-108"/>
      </defs>
      <use xlink:href="#DejaVuSans-109"/>
      <use x="97.412109" xlink:href="#DejaVuSans-101"/>
      <use x="158.935547" xlink:href="#DejaVuSans-97"/>
      <use x="220.214844" xlink:href="#DejaVuSans-110"/>
      <use x="283.59375" xlink:href="#DejaVuSans-32"/>
      <use x="315.380859" xlink:href="#DejaVuSans-112"/>
      <use x="378.857422" xlink:href="#DejaVuSans-111"/>
      <use x="440.039062" xlink:href="#DejaVuSans-112"/>
      <use x="503.515625" xlink:href="#DejaVuSans-117"/>
      <use x="566.894531" xlink:href="#DejaVuSans-108"/>
      <use x="594.677734" xlink:href="#DejaVuSans-97"/>
      <use x="655.957031" xlink:href="#DejaVuSans-116"/>
      <use x="695.166016" xlink:href="#DejaVuSans-105"/>
      <use x="722.949219" xlink:href="#DejaVuSans-111"/>
      <use x="784.130859" xlink:href="#DejaVuSans-110"/>
      <use x="847.509766" xlink:href="#DejaVuSans-32"/>
      <use x="879.296875" xlink:href="#DejaVuSans-102"/>
      <use x="914.501953" xlink:href="#DejaVuSans-105"/>
      <use x="942.285156" xlink:href="#DejaVuSans-116"/>
      <use x="981.494141" xlink:href="#DejaVuSans-110"/>
      <use x="1044.873047" xlink:href="#DejaVuSans-101"/>
      <use x="1106.396484" xlink:href="#DejaVuSans-115"/>
      <use x="1158.496094" xlink:href="#DejaVuSans-115"/>
     </g>
    </g>
   </g>
  </g>
 </g>
 <defs>
  <clipPath id="p12400d6977">
   <rect height="217.44" width="334.8" x="54" y="34.56"/>
  </clipPath>
 </defs>
</svg>
