<?xml version="1.0" encoding="utf-8" standalone="no"?>
<!DOCTYPE svg PUBLIC "-//W3C//DTD SVG 1.1//EN"
  "http://www.w3.org/Graphics/SVG/1.1/DTD/svg11.dtd">
<!-- Created with matplotlib (https://matplotlib.org/) -->
<svg height="288pt" version="1.1" viewBox="0 0 432 288" width="432pt" xmlns="http://www.w3.org/2000/svg" xmlns:xlink="http://www.w3.org/1999/xlink">
 <metadata>
  <rdf:RDF xmlns:cc="http://creativecommons.org/ns#" xmlns:dc="http://purl.org/dc/elements/1.1/" xmlns:rdf="http://www.w3.org/1999/02/22-rdf-syntax-ns#">
   <cc:Work>
    <dc:type rdf:resource="http://purl.org/dc/dcmitype/StillImage"/>
    <dc:date>2021-04-06T00:25:34.934754</dc:date>
    <dc:format>image/svg+xml</dc:format>
    <dc:creator>
     <cc:Agent>
      <dc:title>Matplotlib v3.3.2, https://matplotlib.org/</dc:title>
     </cc:Agent>
    </dc:creator>
   </cc:Work>
  </rdf:RDF>
 </metadata>
 <defs>
  <style type="text/css">*{stroke-linecap:butt;stroke-linejoin:round;}</style>
 </defs>
 <g id="figure_1">
  <g id="patch_1">
   <path d="M 0 288 
L 432 288 
L 432 0 
L 0 0 
z
" style="fill:none;"/>
  </g>
  <g id="axes_1">
   <g id="patch_2">
    <path d="M 54 252 
L 388.8 252 
L 388.8 34.56 
L 54 34.56 
z
" style="fill:#ffffff;"/>
   </g>
   <g id="matplotlib.axis_1">
    <g id="xtick_1">
     <g id="line2d_1">
      <path clip-path="url(#p11823a3ade)" d="M 54 252 
L 54 34.56 
" style="fill:none;stroke:#b0b0b0;stroke-linecap:square;stroke-width:0.8;"/>
     </g>
     <g id="line2d_2">
      <defs>
       <path d="M 0 0 
L 0 3.5 
" id="m34c6d4ebe8" style="stroke:#000000;stroke-width:0.8;"/>
      </defs>
      <g>
       <use style="stroke:#000000;stroke-width:0.8;" x="54" xlink:href="#m34c6d4ebe8" y="252"/>
      </g>
     </g>
     <g id="text_1">
      <!-- 0 -->
      <g transform="translate(50.81875 266.598437)scale(0.1 -0.1)">
       <defs>
        <path d="M 31.78125 66.40625 
Q 24.171875 66.40625 20.328125 58.90625 
Q 16.5 51.421875 16.5 36.375 
Q 16.5 21.390625 20.328125 13.890625 
Q 24.171875 6.390625 31.78125 6.390625 
Q 39.453125 6.390625 43.28125 13.890625 
Q 47.125 21.390625 47.125 36.375 
Q 47.125 51.421875 43.28125 58.90625 
Q 39.453125 66.40625 31.78125 66.40625 
z
M 31.78125 74.21875 
Q 44.046875 74.21875 50.515625 64.515625 
Q 56.984375 54.828125 56.984375 36.375 
Q 56.984375 17.96875 50.515625 8.265625 
Q 44.046875 -1.421875 31.78125 -1.421875 
Q 19.53125 -1.421875 13.0625 8.265625 
Q 6.59375 17.96875 6.59375 36.375 
Q 6.59375 54.828125 13.0625 64.515625 
Q 19.53125 74.21875 31.78125 74.21875 
z
" id="DejaVuSans-48"/>
       </defs>
       <use xlink:href="#DejaVuSans-48"/>
      </g>
     </g>
    </g>
    <g id="xtick_2">
     <g id="line2d_3">
      <path clip-path="url(#p11823a3ade)" d="M 109.8 252 
L 109.8 34.56 
" style="fill:none;stroke:#b0b0b0;stroke-linecap:square;stroke-width:0.8;"/>
     </g>
     <g id="line2d_4">
      <g>
       <use style="stroke:#000000;stroke-width:0.8;" x="109.8" xlink:href="#m34c6d4ebe8" y="252"/>
      </g>
     </g>
     <g id="text_2">
      <!-- 50 -->
      <g transform="translate(103.4375 266.598437)scale(0.1 -0.1)">
       <defs>
        <path d="M 10.796875 72.90625 
L 49.515625 72.90625 
L 49.515625 64.59375 
L 19.828125 64.59375 
L 19.828125 46.734375 
Q 21.96875 47.46875 24.109375 47.828125 
Q 26.265625 48.1875 28.421875 48.1875 
Q 40.625 48.1875 47.75 41.5 
Q 54.890625 34.8125 54.890625 23.390625 
Q 54.890625 11.625 47.5625 5.09375 
Q 40.234375 -1.421875 26.90625 -1.421875 
Q 22.3125 -1.421875 17.546875 -0.640625 
Q 12.796875 0.140625 7.71875 1.703125 
L 7.71875 11.625 
Q 12.109375 9.234375 16.796875 8.0625 
Q 21.484375 6.890625 26.703125 6.890625 
Q 35.15625 6.890625 40.078125 11.328125 
Q 45.015625 15.765625 45.015625 23.390625 
Q 45.015625 31 40.078125 35.4375 
Q 35.15625 39.890625 26.703125 39.890625 
Q 22.75 39.890625 18.8125 39.015625 
Q 14.890625 38.140625 10.796875 36.28125 
z
" id="DejaVuSans-53"/>
       </defs>
       <use xlink:href="#DejaVuSans-53"/>
       <use x="63.623047" xlink:href="#DejaVuSans-48"/>
      </g>
     </g>
    </g>
    <g id="xtick_3">
     <g id="line2d_5">
      <path clip-path="url(#p11823a3ade)" d="M 165.6 252 
L 165.6 34.56 
" style="fill:none;stroke:#b0b0b0;stroke-linecap:square;stroke-width:0.8;"/>
     </g>
     <g id="line2d_6">
      <g>
       <use style="stroke:#000000;stroke-width:0.8;" x="165.6" xlink:href="#m34c6d4ebe8" y="252"/>
      </g>
     </g>
     <g id="text_3">
      <!-- 100 -->
      <g transform="translate(156.05625 266.598437)scale(0.1 -0.1)">
       <defs>
        <path d="M 12.40625 8.296875 
L 28.515625 8.296875 
L 28.515625 63.921875 
L 10.984375 60.40625 
L 10.984375 69.390625 
L 28.421875 72.90625 
L 38.28125 72.90625 
L 38.28125 8.296875 
L 54.390625 8.296875 
L 54.390625 0 
L 12.40625 0 
z
" id="DejaVuSans-49"/>
       </defs>
       <use xlink:href="#DejaVuSans-49"/>
       <use x="63.623047" xlink:href="#DejaVuSans-48"/>
       <use x="127.246094" xlink:href="#DejaVuSans-48"/>
      </g>
     </g>
    </g>
    <g id="xtick_4">
     <g id="line2d_7">
      <path clip-path="url(#p11823a3ade)" d="M 221.4 252 
L 221.4 34.56 
" style="fill:none;stroke:#b0b0b0;stroke-linecap:square;stroke-width:0.8;"/>
     </g>
     <g id="line2d_8">
      <g>
       <use style="stroke:#000000;stroke-width:0.8;" x="221.4" xlink:href="#m34c6d4ebe8" y="252"/>
      </g>
     </g>
     <g id="text_4">
      <!-- 150 -->
      <g transform="translate(211.85625 266.598437)scale(0.1 -0.1)">
       <use xlink:href="#DejaVuSans-49"/>
       <use x="63.623047" xlink:href="#DejaVuSans-53"/>
       <use x="127.246094" xlink:href="#DejaVuSans-48"/>
      </g>
     </g>
    </g>
    <g id="xtick_5">
     <g id="line2d_9">
      <path clip-path="url(#p11823a3ade)" d="M 277.2 252 
L 277.2 34.56 
" style="fill:none;stroke:#b0b0b0;stroke-linecap:square;stroke-width:0.8;"/>
     </g>
     <g id="line2d_10">
      <g>
       <use style="stroke:#000000;stroke-width:0.8;" x="277.2" xlink:href="#m34c6d4ebe8" y="252"/>
      </g>
     </g>
     <g id="text_5">
      <!-- 200 -->
      <g transform="translate(267.65625 266.598437)scale(0.1 -0.1)">
       <defs>
        <path d="M 19.1875 8.296875 
L 53.609375 8.296875 
L 53.609375 0 
L 7.328125 0 
L 7.328125 8.296875 
Q 12.9375 14.109375 22.625 23.890625 
Q 32.328125 33.6875 34.8125 36.53125 
Q 39.546875 41.84375 41.421875 45.53125 
Q 43.3125 49.21875 43.3125 52.78125 
Q 43.3125 58.59375 39.234375 62.25 
Q 35.15625 65.921875 28.609375 65.921875 
Q 23.96875 65.921875 18.8125 64.3125 
Q 13.671875 62.703125 7.8125 59.421875 
L 7.8125 69.390625 
Q 13.765625 71.78125 18.9375 73 
Q 24.125 74.21875 28.421875 74.21875 
Q 39.75 74.21875 46.484375 68.546875 
Q 53.21875 62.890625 53.21875 53.421875 
Q 53.21875 48.921875 51.53125 44.890625 
Q 49.859375 40.875 45.40625 35.40625 
Q 44.1875 33.984375 37.640625 27.21875 
Q 31.109375 20.453125 19.1875 8.296875 
z
" id="DejaVuSans-50"/>
       </defs>
       <use xlink:href="#DejaVuSans-50"/>
       <use x="63.623047" xlink:href="#DejaVuSans-48"/>
       <use x="127.246094" xlink:href="#DejaVuSans-48"/>
      </g>
     </g>
    </g>
    <g id="xtick_6">
     <g id="line2d_11">
      <path clip-path="url(#p11823a3ade)" d="M 333 252 
L 333 34.56 
" style="fill:none;stroke:#b0b0b0;stroke-linecap:square;stroke-width:0.8;"/>
     </g>
     <g id="line2d_12">
      <g>
       <use style="stroke:#000000;stroke-width:0.8;" x="333" xlink:href="#m34c6d4ebe8" y="252"/>
      </g>
     </g>
     <g id="text_6">
      <!-- 250 -->
      <g transform="translate(323.45625 266.598437)scale(0.1 -0.1)">
       <use xlink:href="#DejaVuSans-50"/>
       <use x="63.623047" xlink:href="#DejaVuSans-53"/>
       <use x="127.246094" xlink:href="#DejaVuSans-48"/>
      </g>
     </g>
    </g>
    <g id="xtick_7">
     <g id="line2d_13">
      <path clip-path="url(#p11823a3ade)" d="M 388.8 252 
L 388.8 34.56 
" style="fill:none;stroke:#b0b0b0;stroke-linecap:square;stroke-width:0.8;"/>
     </g>
     <g id="line2d_14">
      <g>
       <use style="stroke:#000000;stroke-width:0.8;" x="388.8" xlink:href="#m34c6d4ebe8" y="252"/>
      </g>
     </g>
     <g id="text_7">
      <!-- 300 -->
      <g transform="translate(379.25625 266.598437)scale(0.1 -0.1)">
       <defs>
        <path d="M 40.578125 39.3125 
Q 47.65625 37.796875 51.625 33 
Q 55.609375 28.21875 55.609375 21.1875 
Q 55.609375 10.40625 48.1875 4.484375 
Q 40.765625 -1.421875 27.09375 -1.421875 
Q 22.515625 -1.421875 17.65625 -0.515625 
Q 12.796875 0.390625 7.625 2.203125 
L 7.625 11.71875 
Q 11.71875 9.328125 16.59375 8.109375 
Q 21.484375 6.890625 26.8125 6.890625 
Q 36.078125 6.890625 40.9375 10.546875 
Q 45.796875 14.203125 45.796875 21.1875 
Q 45.796875 27.640625 41.28125 31.265625 
Q 36.765625 34.90625 28.71875 34.90625 
L 20.21875 34.90625 
L 20.21875 43.015625 
L 29.109375 43.015625 
Q 36.375 43.015625 40.234375 45.921875 
Q 44.09375 48.828125 44.09375 54.296875 
Q 44.09375 59.90625 40.109375 62.90625 
Q 36.140625 65.921875 28.71875 65.921875 
Q 24.65625 65.921875 20.015625 65.03125 
Q 15.375 64.15625 9.8125 62.3125 
L 9.8125 71.09375 
Q 15.4375 72.65625 20.34375 73.4375 
Q 25.25 74.21875 29.59375 74.21875 
Q 40.828125 74.21875 47.359375 69.109375 
Q 53.90625 64.015625 53.90625 55.328125 
Q 53.90625 49.265625 50.4375 45.09375 
Q 46.96875 40.921875 40.578125 39.3125 
z
" id="DejaVuSans-51"/>
       </defs>
       <use xlink:href="#DejaVuSans-51"/>
       <use x="63.623047" xlink:href="#DejaVuSans-48"/>
       <use x="127.246094" xlink:href="#DejaVuSans-48"/>
      </g>
     </g>
    </g>
   </g>
   <g id="matplotlib.axis_2">
    <g id="ytick_1">
     <g id="line2d_15">
      <path clip-path="url(#p11823a3ade)" d="M 54 233.88 
L 388.8 233.88 
" style="fill:none;stroke:#b0b0b0;stroke-linecap:square;stroke-width:0.8;"/>
     </g>
     <g id="line2d_16">
      <defs>
       <path d="M 0 0 
L -3.5 0 
" id="m4350fcc8b0" style="stroke:#000000;stroke-width:0.8;"/>
      </defs>
      <g>
       <use style="stroke:#000000;stroke-width:0.8;" x="54" xlink:href="#m4350fcc8b0" y="233.88"/>
      </g>
     </g>
     <g id="text_8">
      <!-- 0.0 -->
      <g transform="translate(31.096875 237.679219)scale(0.1 -0.1)">
       <defs>
        <path d="M 10.6875 12.40625 
L 21 12.40625 
L 21 0 
L 10.6875 0 
z
" id="DejaVuSans-46"/>
       </defs>
       <use xlink:href="#DejaVuSans-48"/>
       <use x="63.623047" xlink:href="#DejaVuSans-46"/>
       <use x="95.410156" xlink:href="#DejaVuSans-48"/>
      </g>
     </g>
    </g>
    <g id="ytick_2">
     <g id="line2d_17">
      <path clip-path="url(#p11823a3ade)" d="M 54 197.64 
L 388.8 197.64 
" style="fill:none;stroke:#b0b0b0;stroke-linecap:square;stroke-width:0.8;"/>
     </g>
     <g id="line2d_18">
      <g>
       <use style="stroke:#000000;stroke-width:0.8;" x="54" xlink:href="#m4350fcc8b0" y="197.64"/>
      </g>
     </g>
     <g id="text_9">
      <!-- 0.2 -->
      <g transform="translate(31.096875 201.439219)scale(0.1 -0.1)">
       <use xlink:href="#DejaVuSans-48"/>
       <use x="63.623047" xlink:href="#DejaVuSans-46"/>
       <use x="95.410156" xlink:href="#DejaVuSans-50"/>
      </g>
     </g>
    </g>
    <g id="ytick_3">
     <g id="line2d_19">
      <path clip-path="url(#p11823a3ade)" d="M 54 161.4 
L 388.8 161.4 
" style="fill:none;stroke:#b0b0b0;stroke-linecap:square;stroke-width:0.8;"/>
     </g>
     <g id="line2d_20">
      <g>
       <use style="stroke:#000000;stroke-width:0.8;" x="54" xlink:href="#m4350fcc8b0" y="161.4"/>
      </g>
     </g>
     <g id="text_10">
      <!-- 0.4 -->
      <g transform="translate(31.096875 165.199219)scale(0.1 -0.1)">
       <defs>
        <path d="M 37.796875 64.3125 
L 12.890625 25.390625 
L 37.796875 25.390625 
z
M 35.203125 72.90625 
L 47.609375 72.90625 
L 47.609375 25.390625 
L 58.015625 25.390625 
L 58.015625 17.1875 
L 47.609375 17.1875 
L 47.609375 0 
L 37.796875 0 
L 37.796875 17.1875 
L 4.890625 17.1875 
L 4.890625 26.703125 
z
" id="DejaVuSans-52"/>
       </defs>
       <use xlink:href="#DejaVuSans-48"/>
       <use x="63.623047" xlink:href="#DejaVuSans-46"/>
       <use x="95.410156" xlink:href="#DejaVuSans-52"/>
      </g>
     </g>
    </g>
    <g id="ytick_4">
     <g id="line2d_21">
      <path clip-path="url(#p11823a3ade)" d="M 54 125.16 
L 388.8 125.16 
" style="fill:none;stroke:#b0b0b0;stroke-linecap:square;stroke-width:0.8;"/>
     </g>
     <g id="line2d_22">
      <g>
       <use style="stroke:#000000;stroke-width:0.8;" x="54" xlink:href="#m4350fcc8b0" y="125.16"/>
      </g>
     </g>
     <g id="text_11">
      <!-- 0.6 -->
      <g transform="translate(31.096875 128.959219)scale(0.1 -0.1)">
       <defs>
        <path d="M 33.015625 40.375 
Q 26.375 40.375 22.484375 35.828125 
Q 18.609375 31.296875 18.609375 23.390625 
Q 18.609375 15.53125 22.484375 10.953125 
Q 26.375 6.390625 33.015625 6.390625 
Q 39.65625 6.390625 43.53125 10.953125 
Q 47.40625 15.53125 47.40625 23.390625 
Q 47.40625 31.296875 43.53125 35.828125 
Q 39.65625 40.375 33.015625 40.375 
z
M 52.59375 71.296875 
L 52.59375 62.3125 
Q 48.875 64.0625 45.09375 64.984375 
Q 41.3125 65.921875 37.59375 65.921875 
Q 27.828125 65.921875 22.671875 59.328125 
Q 17.53125 52.734375 16.796875 39.40625 
Q 19.671875 43.65625 24.015625 45.921875 
Q 28.375 48.1875 33.59375 48.1875 
Q 44.578125 48.1875 50.953125 41.515625 
Q 57.328125 34.859375 57.328125 23.390625 
Q 57.328125 12.15625 50.6875 5.359375 
Q 44.046875 -1.421875 33.015625 -1.421875 
Q 20.359375 -1.421875 13.671875 8.265625 
Q 6.984375 17.96875 6.984375 36.375 
Q 6.984375 53.65625 15.1875 63.9375 
Q 23.390625 74.21875 37.203125 74.21875 
Q 40.921875 74.21875 44.703125 73.484375 
Q 48.484375 72.75 52.59375 71.296875 
z
" id="DejaVuSans-54"/>
       </defs>
       <use xlink:href="#DejaVuSans-48"/>
       <use x="63.623047" xlink:href="#DejaVuSans-46"/>
       <use x="95.410156" xlink:href="#DejaVuSans-54"/>
      </g>
     </g>
    </g>
    <g id="ytick_5">
     <g id="line2d_23">
      <path clip-path="url(#p11823a3ade)" d="M 54 88.92 
L 388.8 88.92 
" style="fill:none;stroke:#b0b0b0;stroke-linecap:square;stroke-width:0.8;"/>
     </g>
     <g id="line2d_24">
      <g>
       <use style="stroke:#000000;stroke-width:0.8;" x="54" xlink:href="#m4350fcc8b0" y="88.92"/>
      </g>
     </g>
     <g id="text_12">
      <!-- 0.8 -->
      <g transform="translate(31.096875 92.719219)scale(0.1 -0.1)">
       <defs>
        <path d="M 31.78125 34.625 
Q 24.75 34.625 20.71875 30.859375 
Q 16.703125 27.09375 16.703125 20.515625 
Q 16.703125 13.921875 20.71875 10.15625 
Q 24.75 6.390625 31.78125 6.390625 
Q 38.8125 6.390625 42.859375 10.171875 
Q 46.921875 13.96875 46.921875 20.515625 
Q 46.921875 27.09375 42.890625 30.859375 
Q 38.875 34.625 31.78125 34.625 
z
M 21.921875 38.8125 
Q 15.578125 40.375 12.03125 44.71875 
Q 8.5 49.078125 8.5 55.328125 
Q 8.5 64.0625 14.71875 69.140625 
Q 20.953125 74.21875 31.78125 74.21875 
Q 42.671875 74.21875 48.875 69.140625 
Q 55.078125 64.0625 55.078125 55.328125 
Q 55.078125 49.078125 51.53125 44.71875 
Q 48 40.375 41.703125 38.8125 
Q 48.828125 37.15625 52.796875 32.3125 
Q 56.78125 27.484375 56.78125 20.515625 
Q 56.78125 9.90625 50.3125 4.234375 
Q 43.84375 -1.421875 31.78125 -1.421875 
Q 19.734375 -1.421875 13.25 4.234375 
Q 6.78125 9.90625 6.78125 20.515625 
Q 6.78125 27.484375 10.78125 32.3125 
Q 14.796875 37.15625 21.921875 38.8125 
z
M 18.3125 54.390625 
Q 18.3125 48.734375 21.84375 45.5625 
Q 25.390625 42.390625 31.78125 42.390625 
Q 38.140625 42.390625 41.71875 45.5625 
Q 45.3125 48.734375 45.3125 54.390625 
Q 45.3125 60.0625 41.71875 63.234375 
Q 38.140625 66.40625 31.78125 66.40625 
Q 25.390625 66.40625 21.84375 63.234375 
Q 18.3125 60.0625 18.3125 54.390625 
z
" id="DejaVuSans-56"/>
       </defs>
       <use xlink:href="#DejaVuSans-48"/>
       <use x="63.623047" xlink:href="#DejaVuSans-46"/>
       <use x="95.410156" xlink:href="#DejaVuSans-56"/>
      </g>
     </g>
    </g>
    <g id="ytick_6">
     <g id="line2d_25">
      <path clip-path="url(#p11823a3ade)" d="M 54 52.68 
L 388.8 52.68 
" style="fill:none;stroke:#b0b0b0;stroke-linecap:square;stroke-width:0.8;"/>
     </g>
     <g id="line2d_26">
      <g>
       <use style="stroke:#000000;stroke-width:0.8;" x="54" xlink:href="#m4350fcc8b0" y="52.68"/>
      </g>
     </g>
     <g id="text_13">
      <!-- 1.0 -->
      <g transform="translate(31.096875 56.479219)scale(0.1 -0.1)">
       <use xlink:href="#DejaVuSans-49"/>
       <use x="63.623047" xlink:href="#DejaVuSans-46"/>
       <use x="95.410156" xlink:href="#DejaVuSans-48"/>
      </g>
     </g>
    </g>
   </g>
   <g id="line2d_27">
    <path clip-path="url(#p11823a3ade)" d="M 54 52.68 
L 55.116 53.7672 
L 56.232 53.9484 
L 58.464 57.3912 
L 59.58 57.9348 
L 60.696 58.6596 
L 61.812 63.7332 
L 64.044 72.4308 
L 65.16 80.9472 
L 66.276 94.1748 
L 67.392 120.9924 
L 68.508 154.8768 
L 69.624 182.6004 
L 70.74 202.8948 
L 71.856 213.5856 
L 72.972 221.7396 
L 74.088 227.538 
L 75.204 231.162 
L 76.32 232.974 
L 77.436 233.1552 
L 78.552 233.6988 
L 79.668 233.88 
L 97.524 233.88 
L 98.64 233.5176 
L 99.756 233.3364 
L 100.872 233.5176 
L 101.988 233.3364 
L 103.104 233.3364 
L 105.336 233.6988 
L 106.452 233.5176 
L 107.568 233.6988 
L 108.684 233.5176 
L 109.8 233.88 
L 137.7 233.88 
L 138.816 233.6988 
L 139.932 233.88 
L 144.396 233.88 
L 145.512 233.5176 
L 147.744 233.88 
L 230.328 233.88 
L 231.444 233.6988 
L 232.56 233.88 
L 327.42 233.88 
L 328.536 233.6988 
L 329.652 233.88 
L 333 233.88 
L 333 233.88 
" style="fill:none;stroke:#ff0000;stroke-linecap:square;stroke-width:1.5;"/>
   </g>
   <g id="line2d_28">
    <path clip-path="url(#p11823a3ade)" d="M 54 233.88 
L 55.116 233.5176 
L 56.232 233.3364 
L 57.348 233.3364 
L 58.464 232.2492 
L 60.696 231.162 
L 62.928 228.0816 
L 64.044 228.9876 
L 65.16 228.9876 
L 66.276 230.256 
L 67.392 230.6184 
L 68.508 230.4372 
L 69.624 229.8936 
L 70.74 229.8936 
L 71.856 230.9808 
L 72.972 231.5244 
L 74.088 232.974 
L 75.204 233.1552 
L 76.32 232.4304 
L 77.436 233.3364 
L 78.552 233.1552 
L 79.668 233.5176 
L 80.784 232.4304 
L 83.016 232.4304 
L 84.132 233.3364 
L 85.248 233.1552 
L 86.364 233.1552 
L 87.48 233.5176 
L 88.596 233.6988 
L 90.828 232.974 
L 91.944 232.2492 
L 93.06 232.7928 
L 94.176 233.5176 
L 95.292 232.2492 
L 96.408 232.068 
L 97.524 231.162 
L 98.64 232.2492 
L 99.756 231.8868 
L 100.872 233.3364 
L 101.988 233.1552 
L 103.104 233.5176 
L 106.452 233.5176 
L 107.568 233.88 
L 108.684 233.1552 
L 109.8 232.974 
L 110.916 233.3364 
L 112.032 233.5176 
L 113.148 233.5176 
L 114.264 232.6116 
L 115.38 232.068 
L 116.496 232.974 
L 117.612 233.3364 
L 118.728 232.7928 
L 119.844 232.4304 
L 120.96 233.1552 
L 122.076 232.974 
L 123.192 231.8868 
L 124.308 232.4304 
L 125.424 232.6116 
L 126.54 232.6116 
L 127.656 233.1552 
L 128.772 232.7928 
L 129.888 232.068 
L 131.004 232.068 
L 132.12 232.6116 
L 133.236 232.4304 
L 134.352 233.3364 
L 135.468 232.974 
L 136.584 231.5244 
L 137.7 231.7056 
L 138.816 232.6116 
L 139.932 232.7928 
L 141.048 232.7928 
L 142.164 233.3364 
L 143.28 233.5176 
L 144.396 233.5176 
L 145.512 232.6116 
L 146.628 233.1552 
L 147.744 233.5176 
L 148.86 232.7928 
L 149.976 232.7928 
L 151.092 233.3364 
L 152.208 232.7928 
L 153.324 232.7928 
L 154.44 233.5176 
L 155.556 233.5176 
L 156.672 233.6988 
L 157.788 233.5176 
L 158.904 232.974 
L 160.02 232.7928 
L 161.136 232.974 
L 162.252 232.974 
L 163.368 233.5176 
L 164.484 233.6988 
L 166.716 232.2492 
L 167.832 232.068 
L 168.948 232.974 
L 170.064 232.7928 
L 171.18 232.974 
L 172.296 232.7928 
L 173.412 233.3364 
L 174.528 232.974 
L 175.644 233.1552 
L 176.76 232.974 
L 177.876 233.5176 
L 178.992 233.88 
L 180.108 233.1552 
L 181.224 233.1552 
L 182.34 232.068 
L 183.456 233.1552 
L 184.572 233.1552 
L 185.688 232.974 
L 186.804 233.3364 
L 187.92 233.5176 
L 189.036 232.7928 
L 190.152 232.7928 
L 191.268 233.6988 
L 194.616 233.1552 
L 195.732 233.5176 
L 196.848 233.6988 
L 197.964 233.5176 
L 199.08 231.7056 
L 200.196 231.8868 
L 201.312 232.974 
L 202.428 232.6116 
L 203.544 232.974 
L 204.66 233.6988 
L 205.776 233.5176 
L 208.008 233.5176 
L 209.124 232.974 
L 210.24 233.3364 
L 211.356 232.6116 
L 212.472 232.6116 
L 213.588 232.4304 
L 214.704 232.6116 
L 215.82 232.2492 
L 216.936 232.2492 
L 219.168 232.6116 
L 220.284 233.1552 
L 221.4 233.3364 
L 223.632 233.3364 
L 224.748 232.974 
L 225.864 232.974 
L 226.98 232.4304 
L 228.096 232.974 
L 229.212 232.4304 
L 230.328 233.1552 
L 231.444 232.7928 
L 232.56 232.6116 
L 233.676 233.1552 
L 235.908 233.5176 
L 237.024 232.7928 
L 239.256 233.5176 
L 240.372 233.3364 
L 243.72 233.3364 
L 244.836 232.974 
L 245.952 232.974 
L 247.068 233.88 
L 248.184 233.6988 
L 249.3 233.3364 
L 250.416 233.3364 
L 251.532 233.1552 
L 252.648 233.3364 
L 254.88 232.6116 
L 255.996 232.6116 
L 257.112 232.7928 
L 258.228 232.7928 
L 259.344 233.3364 
L 260.46 232.6116 
L 263.808 232.6116 
L 264.924 233.3364 
L 266.04 233.6988 
L 267.156 233.1552 
L 268.272 232.974 
L 269.388 233.5176 
L 270.504 233.88 
L 272.736 233.5176 
L 273.852 232.7928 
L 274.968 231.8868 
L 276.084 232.6116 
L 278.316 233.6988 
L 279.432 233.6988 
L 280.548 232.974 
L 281.664 232.068 
L 282.78 233.1552 
L 283.896 232.974 
L 285.012 232.2492 
L 286.128 232.7928 
L 287.244 232.6116 
L 288.36 233.5176 
L 289.476 232.7928 
L 290.592 232.4304 
L 291.708 232.6116 
L 292.824 233.3364 
L 293.94 233.3364 
L 295.056 233.5176 
L 296.172 233.5176 
L 297.288 232.974 
L 298.404 233.3364 
L 299.52 233.3364 
L 300.636 233.1552 
L 301.752 232.068 
L 302.868 232.974 
L 303.984 233.5176 
L 305.1 233.1552 
L 306.216 233.1552 
L 307.332 232.7928 
L 308.448 232.7928 
L 309.564 233.3364 
L 310.68 232.6116 
L 311.796 232.974 
L 312.912 233.5176 
L 314.028 233.6988 
L 315.144 233.1552 
L 316.26 232.974 
L 317.376 232.2492 
L 318.492 232.7928 
L 319.608 233.5176 
L 320.724 233.3364 
L 321.84 233.5176 
L 322.956 233.88 
L 324.072 233.88 
L 325.188 233.3364 
L 326.304 233.3364 
L 327.42 232.974 
L 328.536 232.974 
L 329.652 233.3364 
L 330.768 232.974 
L 331.884 233.1552 
L 333 233.1552 
L 333 233.1552 
" style="fill:none;stroke:#0000ff;stroke-linecap:square;stroke-width:1.5;"/>
   </g>
   <g id="line2d_29">
    <path clip-path="url(#p11823a3ade)" d="M 54 233.88 
L 55.116 233.1552 
L 56.232 233.1552 
L 57.348 231.3432 
L 58.464 230.7996 
L 59.58 230.7996 
L 60.696 231.162 
L 61.812 228.9876 
L 62.928 229.5312 
L 64.044 229.8936 
L 66.276 228.8064 
L 67.392 228.444 
L 68.508 230.0748 
L 69.624 231.162 
L 70.74 232.6116 
L 71.856 231.8868 
L 72.972 232.2492 
L 74.088 232.974 
L 75.204 231.5244 
L 76.32 230.4372 
L 77.436 231.162 
L 79.668 233.3364 
L 81.9 233.3364 
L 83.016 232.6116 
L 84.132 232.974 
L 85.248 232.7928 
L 86.364 233.1552 
L 87.48 232.974 
L 88.596 233.1552 
L 89.712 232.974 
L 90.828 233.3364 
L 91.944 233.3364 
L 93.06 233.5176 
L 94.176 232.7928 
L 95.292 233.1552 
L 97.524 233.5176 
L 98.64 233.1552 
L 99.756 232.974 
L 100.872 233.3364 
L 101.988 233.5176 
L 103.104 233.1552 
L 104.22 232.974 
L 105.336 233.3364 
L 106.452 233.3364 
L 107.568 233.1552 
L 108.684 233.1552 
L 109.8 232.974 
L 110.916 233.1552 
L 112.032 233.5176 
L 113.148 233.5176 
L 114.264 233.3364 
L 115.38 233.3364 
L 116.496 233.6988 
L 117.612 232.974 
L 118.728 232.7928 
L 119.844 232.4304 
L 120.96 233.3364 
L 122.076 232.7928 
L 123.192 233.5176 
L 124.308 233.5176 
L 126.54 233.88 
L 127.656 233.3364 
L 128.772 233.1552 
L 129.888 233.3364 
L 131.004 232.7928 
L 132.12 232.974 
L 133.236 232.6116 
L 134.352 232.6116 
L 135.468 233.1552 
L 136.584 232.7928 
L 137.7 231.7056 
L 138.816 233.3364 
L 139.932 232.7928 
L 141.048 232.068 
L 142.164 232.068 
L 143.28 231.8868 
L 144.396 232.7928 
L 145.512 232.7928 
L 146.628 233.5176 
L 147.744 233.1552 
L 148.86 232.974 
L 149.976 232.6116 
L 151.092 232.7928 
L 152.208 232.7928 
L 153.324 232.4304 
L 156.672 232.974 
L 157.788 233.5176 
L 158.904 233.1552 
L 160.02 232.6116 
L 161.136 232.6116 
L 162.252 232.7928 
L 163.368 232.6116 
L 164.484 231.8868 
L 165.6 232.4304 
L 166.716 232.4304 
L 167.832 232.068 
L 168.948 232.4304 
L 170.064 232.6116 
L 171.18 233.1552 
L 172.296 232.4304 
L 173.412 233.6988 
L 174.528 233.3364 
L 175.644 233.1552 
L 177.876 233.5176 
L 178.992 232.7928 
L 180.108 232.974 
L 181.224 233.6988 
L 182.34 233.88 
L 183.456 233.88 
L 184.572 233.1552 
L 185.688 232.7928 
L 186.804 232.7928 
L 187.92 233.88 
L 189.036 233.1552 
L 190.152 232.974 
L 191.268 233.5176 
L 192.384 233.3364 
L 193.5 233.3364 
L 194.616 232.7928 
L 196.848 233.5176 
L 197.964 233.5176 
L 199.08 233.1552 
L 200.196 233.88 
L 201.312 233.3364 
L 202.428 233.5176 
L 203.544 233.1552 
L 204.66 232.4304 
L 205.776 232.6116 
L 206.892 233.1552 
L 208.008 232.974 
L 209.124 233.1552 
L 210.24 233.5176 
L 212.472 232.7928 
L 213.588 233.1552 
L 214.704 231.8868 
L 215.82 232.068 
L 216.936 231.8868 
L 218.052 231.8868 
L 219.168 232.7928 
L 220.284 232.7928 
L 221.4 233.1552 
L 222.516 232.974 
L 223.632 233.6988 
L 224.748 233.6988 
L 225.864 232.974 
L 226.98 233.1552 
L 228.096 232.6116 
L 229.212 233.3364 
L 230.328 232.6116 
L 231.444 233.1552 
L 232.56 233.5176 
L 233.676 233.1552 
L 234.792 233.3364 
L 235.908 233.3364 
L 237.024 232.7928 
L 238.14 231.7056 
L 239.256 232.2492 
L 240.372 232.6116 
L 241.488 233.1552 
L 242.604 233.1552 
L 243.72 232.2492 
L 244.836 232.974 
L 247.068 233.6988 
L 248.184 233.6988 
L 249.3 233.1552 
L 250.416 233.3364 
L 251.532 232.974 
L 252.648 233.3364 
L 253.764 233.3364 
L 254.88 233.6988 
L 255.996 233.88 
L 257.112 233.6988 
L 259.344 233.6988 
L 260.46 233.1552 
L 261.576 233.1552 
L 262.692 233.3364 
L 263.808 231.5244 
L 264.924 231.8868 
L 266.04 232.6116 
L 267.156 232.4304 
L 268.272 231.7056 
L 269.388 231.5244 
L 270.504 232.974 
L 271.62 232.7928 
L 272.736 232.068 
L 273.852 232.7928 
L 276.084 231.7056 
L 277.2 232.7928 
L 278.316 232.4304 
L 279.432 233.5176 
L 280.548 233.5176 
L 281.664 233.6988 
L 283.896 233.3364 
L 285.012 232.974 
L 286.128 233.1552 
L 287.244 233.1552 
L 288.36 233.5176 
L 289.476 232.4304 
L 290.592 232.7928 
L 291.708 232.7928 
L 292.824 232.2492 
L 293.94 232.2492 
L 295.056 233.3364 
L 296.172 232.974 
L 297.288 233.5176 
L 298.404 233.1552 
L 299.52 232.4304 
L 300.636 233.3364 
L 301.752 232.6116 
L 302.868 232.6116 
L 303.984 233.1552 
L 305.1 233.1552 
L 306.216 232.7928 
L 307.332 233.5176 
L 308.448 233.88 
L 309.564 233.5176 
L 310.68 232.974 
L 311.796 233.1552 
L 312.912 233.6988 
L 314.028 233.1552 
L 315.144 232.7928 
L 316.26 232.974 
L 317.376 233.3364 
L 319.608 232.6116 
L 320.724 232.974 
L 321.84 233.1552 
L 322.956 233.1552 
L 324.072 232.6116 
L 325.188 233.1552 
L 326.304 233.5176 
L 327.42 233.3364 
L 328.536 232.6116 
L 329.652 233.1552 
L 330.768 232.068 
L 331.884 232.068 
L 333 232.6116 
L 333 232.6116 
" style="fill:none;stroke:#00bfbf;stroke-linecap:square;stroke-width:1.5;"/>
   </g>
   <g id="line2d_30">
    <path clip-path="url(#p11823a3ade)" d="M 54 233.88 
L 59.58 233.88 
L 60.696 233.3364 
L 61.812 232.068 
L 62.928 228.8064 
L 64.044 223.008 
L 65.16 215.0352 
L 66.276 201.0828 
L 67.392 174.2652 
L 68.508 138.9312 
L 69.624 110.664 
L 70.74 88.92 
L 71.856 77.8668 
L 72.972 68.8068 
L 74.088 60.834 
L 75.204 58.4784 
L 76.32 58.4784 
L 77.436 56.6664 
L 79.668 53.586 
L 80.784 54.6732 
L 81.9 54.6732 
L 83.016 55.398 
L 84.132 54.1296 
L 85.248 54.492 
L 86.364 54.1296 
L 87.48 53.9484 
L 88.596 53.586 
L 89.712 54.1296 
L 90.828 54.1296 
L 91.944 54.8544 
L 93.06 54.1296 
L 94.176 54.1296 
L 95.292 55.0356 
L 96.408 55.0356 
L 97.524 55.7604 
L 98.64 55.398 
L 99.756 56.1228 
L 100.872 54.1296 
L 101.988 54.3108 
L 104.22 54.3108 
L 105.336 53.7672 
L 106.452 53.9484 
L 107.568 53.586 
L 108.684 54.492 
L 109.8 54.492 
L 112.032 53.4048 
L 113.148 53.4048 
L 114.264 54.492 
L 115.38 55.0356 
L 116.496 53.7672 
L 117.612 54.1296 
L 119.844 55.5792 
L 120.96 53.9484 
L 122.076 54.6732 
L 123.192 55.0356 
L 124.308 54.492 
L 125.424 54.1296 
L 126.54 53.9484 
L 127.656 53.9484 
L 131.004 55.5792 
L 132.12 54.8544 
L 133.236 55.398 
L 134.352 54.492 
L 135.468 54.3108 
L 136.584 56.1228 
L 137.7 57.0288 
L 138.816 54.6732 
L 139.932 54.8544 
L 141.048 55.5792 
L 142.164 55.0356 
L 143.28 55.0356 
L 144.396 54.1296 
L 145.512 55.398 
L 146.628 53.9484 
L 147.744 53.7672 
L 148.86 54.6732 
L 149.976 55.0356 
L 151.092 54.3108 
L 152.208 54.8544 
L 153.324 55.2168 
L 154.44 54.3108 
L 155.556 54.1296 
L 157.788 53.4048 
L 158.904 54.3108 
L 160.02 55.0356 
L 162.252 54.6732 
L 163.368 54.3108 
L 164.484 54.8544 
L 165.6 55.0356 
L 166.716 55.7604 
L 167.832 56.304 
L 168.948 55.0356 
L 170.064 55.0356 
L 171.18 54.3108 
L 172.296 55.2168 
L 173.412 53.4048 
L 174.528 54.1296 
L 176.76 54.1296 
L 177.876 53.4048 
L 178.992 53.7672 
L 180.108 54.3108 
L 181.224 53.586 
L 182.34 54.492 
L 183.456 53.4048 
L 184.572 54.1296 
L 185.688 54.6732 
L 186.804 54.3108 
L 187.92 53.0424 
L 189.036 54.492 
L 190.152 54.6732 
L 191.268 53.2236 
L 192.384 53.586 
L 193.5 53.7672 
L 194.616 54.492 
L 195.732 53.7672 
L 196.848 53.2236 
L 197.964 53.4048 
L 199.08 55.5792 
L 200.196 54.6732 
L 201.312 54.1296 
L 202.428 54.3108 
L 205.776 54.3108 
L 206.892 53.7672 
L 208.008 53.9484 
L 209.124 54.3108 
L 210.24 53.586 
L 211.356 54.6732 
L 212.472 55.0356 
L 213.588 54.8544 
L 214.704 55.9416 
L 216.936 56.304 
L 218.052 56.1228 
L 219.168 55.0356 
L 221.4 53.9484 
L 222.516 54.1296 
L 223.632 53.4048 
L 224.748 53.7672 
L 225.864 54.492 
L 226.98 54.8544 
L 228.096 54.8544 
L 229.212 54.6732 
L 231.444 54.6732 
L 232.56 54.3108 
L 233.676 54.1296 
L 234.792 53.7672 
L 235.908 53.586 
L 237.024 54.8544 
L 238.14 55.5792 
L 239.256 54.6732 
L 240.372 54.492 
L 241.488 53.9484 
L 242.604 53.9484 
L 243.72 54.8544 
L 245.952 54.1296 
L 247.068 52.8612 
L 248.184 53.0424 
L 249.3 53.9484 
L 250.416 53.7672 
L 251.532 54.3108 
L 252.648 53.7672 
L 253.764 54.1296 
L 254.88 54.1296 
L 255.996 53.9484 
L 258.228 53.9484 
L 259.344 53.4048 
L 260.46 54.6732 
L 261.576 54.6732 
L 262.692 54.492 
L 263.808 56.304 
L 266.04 54.1296 
L 267.156 54.8544 
L 268.272 55.7604 
L 269.388 55.398 
L 270.504 53.586 
L 271.62 53.9484 
L 272.736 54.8544 
L 273.852 54.8544 
L 274.968 56.304 
L 276.084 56.1228 
L 277.2 54.492 
L 278.316 54.3108 
L 279.432 53.2236 
L 281.664 54.6732 
L 282.78 53.7672 
L 283.896 54.1296 
L 285.012 55.2168 
L 286.128 54.492 
L 287.244 54.6732 
L 288.36 53.4048 
L 289.476 55.2168 
L 290.592 55.2168 
L 292.824 54.8544 
L 293.94 54.8544 
L 295.056 53.586 
L 296.172 53.9484 
L 298.404 53.9484 
L 299.52 54.6732 
L 300.636 53.9484 
L 301.752 55.7604 
L 302.868 54.8544 
L 303.984 53.7672 
L 306.216 54.492 
L 308.448 53.7672 
L 309.564 53.586 
L 310.68 54.8544 
L 311.796 54.3108 
L 312.912 53.2236 
L 314.028 53.586 
L 315.144 54.492 
L 316.26 54.492 
L 317.376 54.8544 
L 318.492 54.6732 
L 319.608 54.3108 
L 320.724 54.1296 
L 322.956 53.4048 
L 324.072 53.9484 
L 325.188 53.9484 
L 326.304 53.586 
L 327.42 54.1296 
L 328.536 55.0356 
L 329.652 53.9484 
L 330.768 55.398 
L 331.884 55.2168 
L 333 54.6732 
L 333 54.6732 
" style="fill:none;stroke:#00ff00;stroke-linecap:square;stroke-width:1.5;"/>
   </g>
   <g id="line2d_31">
    <path clip-path="url(#p11823a3ade)" d="M 54 188.58 
L 333 188.58 
L 333 188.58 
" style="fill:none;stroke:#ff0000;stroke-dasharray:5.55,2.4;stroke-dashoffset:0;stroke-width:1.5;"/>
   </g>
   <g id="line2d_32">
    <path clip-path="url(#p11823a3ade)" d="M 54 188.58 
L 67.392 188.485736 
L 69.624 188.296779 
L 71.856 187.902059 
L 74.088 188.072836 
L 75.204 188.373626 
L 76.32 188.40695 
L 77.436 188.229191 
L 78.552 188.44844 
L 79.668 188.402785 
L 80.784 188.490667 
L 81.9 188.219411 
L 84.132 188.221563 
L 85.248 188.44613 
L 87.48 188.400609 
L 89.712 188.535017 
L 93.06 188.175551 
L 95.292 188.490122 
L 96.408 188.17556 
L 97.524 188.132853 
L 98.64 187.909266 
L 99.756 188.17914 
L 100.872 188.089135 
L 101.988 188.446666 
L 103.104 188.400248 
L 105.336 188.490215 
L 109.8 188.399706 
L 110.916 188.355761 
L 113.148 188.490033 
L 114.264 188.489762 
L 116.496 188.131508 
L 117.612 188.356422 
L 118.728 188.444912 
L 120.96 188.221936 
L 122.076 188.401688 
L 123.192 188.355082 
L 124.308 188.087169 
L 126.54 188.266051 
L 127.656 188.265421 
L 128.772 188.40006 
L 132.12 188.132844 
L 133.236 188.267942 
L 134.352 188.221931 
L 135.468 188.44613 
L 136.584 188.355763 
L 137.7 187.996386 
L 138.816 188.046637 
L 139.932 188.270466 
L 145.512 188.490577 
L 146.628 188.265436 
L 148.86 188.490033 
L 149.976 188.30983 
L 151.092 188.31118 
L 152.208 188.445862 
L 153.324 188.310644 
L 154.44 188.311452 
L 155.556 188.490665 
L 158.904 188.489944 
L 161.136 188.310639 
L 165.6 188.535108 
L 167.832 188.17759 
L 168.948 188.134665 
L 170.064 188.358008 
L 173.412 188.310639 
L 174.528 188.445998 
L 175.644 188.354404 
L 180.108 188.58 
L 181.224 188.399887 
L 182.34 188.400428 
L 183.456 188.129258 
L 184.572 188.400594 
L 191.268 188.310908 
L 192.384 188.535197 
L 195.732 188.399886 
L 197.964 188.534972 
L 199.08 188.489672 
L 200.196 188.038572 
L 201.312 188.089601 
L 202.428 188.355965 
L 203.544 188.265429 
L 206.892 188.490215 
L 209.124 188.489943 
L 210.24 188.355085 
L 211.356 188.44532 
L 212.472 188.264483 
L 220.284 188.268905 
L 222.516 188.445457 
L 226.98 188.354853 
L 228.096 188.221215 
L 229.212 188.356204 
L 230.328 188.22194 
L 231.444 188.400782 
L 233.676 188.266377 
L 235.908 188.445185 
L 237.024 188.489943 
L 238.14 188.309558 
L 240.372 188.490848 
L 243.72 188.44505 
L 247.068 188.355759 
L 248.184 188.58 
L 257.112 188.265421 
L 260.46 188.445046 
L 261.576 188.264166 
L 264.924 188.266056 
L 267.156 188.535334 
L 269.388 188.356214 
L 271.62 188.58 
L 273.852 188.490034 
L 276.084 188.087662 
L 279.432 188.535152 
L 280.548 188.535108 
L 282.78 188.13016 
L 283.896 188.400775 
L 285.012 188.354855 
L 286.128 188.175551 
L 287.244 188.311983 
L 288.36 188.26606 
L 289.476 188.490392 
L 291.708 188.222661 
L 292.824 188.267319 
L 293.94 188.44586 
L 301.752 188.400792 
L 302.868 188.130164 
L 305.1 188.490485 
L 308.448 188.310914 
L 309.564 188.310365 
L 310.68 188.444911 
L 311.796 188.264483 
L 315.144 188.534836 
L 318.492 188.176367 
L 320.724 188.490393 
L 322.956 188.490124 
L 325.188 188.58 
L 326.304 188.445051 
L 333 188.401514 
L 333 188.401514 
" style="fill:none;stroke:#0000ff;stroke-dasharray:5.55,2.4;stroke-dashoffset:0;stroke-width:1.5;"/>
   </g>
   <g id="line2d_33">
    <path clip-path="url(#p11823a3ade)" d="M 54 188.58 
L 333 188.58 
L 333 188.58 
" style="fill:none;stroke:#00bfbf;stroke-dasharray:5.55,2.4;stroke-dashoffset:0;stroke-width:1.5;"/>
   </g>
   <g id="line2d_34">
    <path clip-path="url(#p11823a3ade)" d="M 54 143.28 
L 333 143.28 
L 333 143.28 
" style="fill:none;stroke:#1f77b4;stroke-dasharray:5.55,2.4;stroke-dashoffset:0;stroke-width:1.5;"/>
   </g>
   <g id="line2d_35">
    <path clip-path="url(#p11823a3ade)" d="M 54 188.58 
L 60.696 188.58 
L 61.812 188.4441 
L 62.928 188.126922 
L 64.044 187.311136 
L 65.16 185.861075 
L 66.276 183.866818 
L 67.392 180.378815 
L 68.508 173.673643 
L 69.624 164.837419 
L 70.74 157.764509 
L 71.856 152.325085 
L 72.972 149.567419 
L 74.088 147.305107 
L 75.204 145.317468 
L 76.32 144.728908 
L 77.436 144.726794 
L 79.668 143.913491 
L 80.784 143.506321 
L 81.9 143.775415 
L 83.016 143.775433 
L 84.132 143.956633 
L 85.248 143.641998 
L 86.364 143.732281 
L 89.712 143.506455 
L 90.828 143.641994 
L 91.944 143.641277 
L 93.06 143.81996 
L 94.176 143.640789 
L 95.292 143.64222 
L 96.408 143.86526 
L 97.524 143.864429 
L 98.64 144.040039 
L 99.756 143.955892 
L 100.872 144.1353 
L 101.988 143.642 
L 105.336 143.68752 
L 106.452 143.55162 
L 107.568 143.59692 
L 108.684 143.5065 
L 109.8 143.732279 
L 110.916 143.731879 
L 113.148 143.46102 
L 114.264 143.46102 
L 115.38 143.730789 
L 116.496 143.864415 
L 117.612 143.550682 
L 119.844 143.821982 
L 120.96 144.001935 
L 122.076 143.596387 
L 124.308 143.863479 
L 126.54 143.640202 
L 128.772 143.59638 
L 132.12 144.000328 
L 133.236 143.821416 
L 134.352 143.956635 
L 135.468 143.732598 
L 136.584 143.686579 
L 137.7 144.133113 
L 138.816 144.3608 
L 139.932 143.776133 
L 141.048 143.821987 
L 142.164 144.003189 
L 143.28 143.868499 
L 144.396 143.868721 
L 145.512 143.642221 
L 146.628 143.957298 
L 147.744 143.596386 
L 148.86 143.55162 
L 149.976 143.776679 
L 151.092 143.867287 
L 152.208 143.687298 
L 154.44 143.912589 
L 155.556 143.687521 
L 158.904 143.46102 
L 161.136 143.867284 
L 164.484 143.687521 
L 168.948 144.181547 
L 170.064 143.86779 
L 171.18 143.86729 
L 172.296 143.686582 
L 173.412 143.912584 
L 174.528 143.460798 
L 175.644 143.641272 
L 177.876 143.641277 
L 178.992 143.46102 
L 181.224 143.68698 
L 182.34 143.505782 
L 183.456 143.728493 
L 184.572 143.460482 
L 186.804 143.777177 
L 187.92 143.687297 
L 189.036 143.37042 
L 190.152 143.731372 
L 191.268 143.776685 
L 192.384 143.415855 
L 195.732 143.73228 
L 197.964 143.415855 
L 199.08 143.461019 
L 200.196 143.998303 
L 202.428 143.64128 
L 205.776 143.687655 
L 206.892 143.68752 
L 208.008 143.55162 
L 210.24 143.686575 
L 211.356 143.506096 
L 212.472 143.776091 
L 213.588 143.866705 
L 214.704 143.820738 
L 215.82 144.093207 
L 219.168 144.137859 
L 220.284 143.866722 
L 222.516 143.596696 
L 223.632 143.641995 
L 224.748 143.460796 
L 229.212 143.822481 
L 237.024 143.50632 
L 238.14 143.821977 
L 239.256 144.004084 
L 240.372 143.778122 
L 243.72 143.596695 
L 244.836 143.823195 
L 247.068 143.641279 
L 248.184 143.3253 
L 249.3 143.370555 
L 250.416 143.596693 
L 251.532 143.551395 
L 252.648 143.68698 
L 253.764 143.551396 
L 255.996 143.640198 
L 260.46 143.460795 
L 261.576 143.776089 
L 263.808 143.730805 
L 264.924 144.183802 
L 267.156 143.642355 
L 269.388 144.048981 
L 270.504 143.959322 
L 271.62 143.5065 
L 272.736 143.597055 
L 273.852 143.82342 
L 274.968 143.821989 
L 276.084 144.180584 
L 277.2 144.138524 
L 278.316 143.732289 
L 279.432 143.687655 
L 280.548 143.415855 
L 282.78 143.773802 
L 283.896 143.551083 
L 285.012 143.641274 
L 286.128 143.91056 
L 287.244 143.731392 
L 288.36 143.776102 
L 289.476 143.461021 
L 290.592 143.912576 
L 295.056 143.823197 
L 296.172 143.506321 
L 298.404 143.595975 
L 299.52 143.596695 
L 300.636 143.777895 
L 301.752 143.596383 
L 302.868 144.045602 
L 305.1 143.551621 
L 307.332 143.732281 
L 310.68 143.506095 
L 311.796 143.821391 
L 312.912 143.686581 
L 314.028 143.41572 
L 315.144 143.506455 
L 316.26 143.732279 
L 321.84 143.641996 
L 324.072 143.4612 
L 325.188 143.5971 
L 328.536 143.641273 
L 329.652 143.867777 
L 330.768 143.596698 
L 331.884 143.958375 
L 333 143.913486 
L 333 143.913486 
" style="fill:none;stroke:#008000;stroke-dasharray:5.55,2.4;stroke-dashoffset:0;stroke-width:1.5;"/>
   </g>
   <g id="patch_3">
    <path d="M 54 252 
L 54 34.56 
" style="fill:none;stroke:#000000;stroke-linecap:square;stroke-linejoin:miter;stroke-width:0.8;"/>
   </g>
   <g id="patch_4">
    <path d="M 388.8 252 
L 388.8 34.56 
" style="fill:none;stroke:#000000;stroke-linecap:square;stroke-linejoin:miter;stroke-width:0.8;"/>
   </g>
   <g id="patch_5">
    <path d="M 54 252 
L 388.8 252 
" style="fill:none;stroke:#000000;stroke-linecap:square;stroke-linejoin:miter;stroke-width:0.8;"/>
   </g>
   <g id="patch_6">
    <path d="M 54 34.56 
L 388.8 34.56 
" style="fill:none;stroke:#000000;stroke-linecap:square;stroke-linejoin:miter;stroke-width:0.8;"/>
   </g>
  </g>
 </g>
 <defs>
  <clipPath id="p11823a3ade">
   <rect height="217.44" width="334.8" x="54" y="34.56"/>
  </clipPath>
 </defs>
</svg>
